<?xml version="1.0" encoding="iso-8859-1"?>
<!-- Generator: Adobe Illustrator 18.0.0, SVG Export Plug-In . SVG Version: 6.00 Build 0)  -->
<!DOCTYPE svg PUBLIC "-//W3C//DTD SVG 1.1//EN" "http://www.w3.org/Graphics/SVG/1.1/DTD/svg11.dtd">
<svg version="1.1" xmlns="http://www.w3.org/2000/svg" xmlns:xlink="http://www.w3.org/1999/xlink" x="0px" y="0px"
	 viewBox="0 0 1296 1296" style="enable-background:new 0 0 1296 1296;" xml:space="preserve">
<g id="&#xC9C0;&#xB3C4;">
	<path style="fill:#CCCCCC;" d="M758.406,580.487c1.761-1.231,2.817-2.641,2.993-3.873c0-1.232,0.176-2.113,0.353-2.993h-9.507
		c-1.233,0.176-2.817,1.232-4.931,3.168c-2.993,2.817-4.929,4.226-5.457,4.578c-0.176,0-0.352,0.176-0.529,0.176
		c-1.937,0.176-3.697,0.353-4.929,0.704c-1.584,0.176-2.465,0.704-2.817,1.761l0,0c-0.352,2.817-1.584,4.578-3.521,5.458
		c-0.176,0.177-0.176,0.177-0.176,0.177c-0.351,0-1.937,0.352-5.105,1.057c-1.232,0.352-2.113,0.88-2.641,1.76
		c-0.177,0.175-0.177,0.175-0.177,0.175c-0.352,0.88-0.704,2.289-1.056,4.226c-0.175,0-0.175,0-0.175,0.176
		c-0.352,1.937-3.346,4.578-8.803,7.747c-7.042,7.923-11.973,12.676-14.614,14.26c0,0.176,0,0.353,0.177,0.705
		c0,0.176,0,0.352,0,0.528c0,0.704-0.177,2.817-0.353,5.81c-0.176,0.705-0.352,1.409-0.528,1.937c0,0,0,0,0.177,0.176
		c0,0,0.176,0.176,0.176,0.352c0.352,0.175,0.88,0.352,1.408,0.704c0,0.176,0,0.176,0.176,0.176c0,0,0.176,0,0.352,0
		c0.176,0,0.176,0,0.352,0c0,0.175,0,0.175,0.176,0.175c1.056,0.528,2.112,0.705,2.993,0.705c4.401,0,8.099-0.88,10.563-3.169
		c3.346-2.993,5.634-4.401,6.691-4.226c1.584-0.353,6.162,3.873,13.381,12.324c6.337,7.218,11.795,10.916,16.373,10.916
		c1.408,0,4.929,0,11.091-0.176c0.705-1.409,1.409-3.169,2.465-5.105l0,0c1.936-3.521,3.873-6.338,5.81-8.451
		c0.704-6.338,0.88-9.86,0.88-10.915c0-4.049-1.76-8.451-5.105-12.853c-3.874-5.458-5.986-9.684-5.811-12.853
		c-0.175-0.704-0.704-1.76-1.935-3.345c-1.761-2.641-2.641-4.401-2.466-5.458c-0.175-2.289,1.233-4.401,4.226-6.515H758.406z"/>
	<path style="fill:#CCCCCC;" d="M758.582,649.68c-4.93,0-7.923,0-9.155,0c-5.459,0.175-11.796-3.873-19.014-12.149
		c-6.162-7.218-9.86-10.739-10.74-11.091c-0.529,0.176-1.937,1.232-4.225,3.345h-0.177c-2.993,2.641-7.395,4.05-12.852,4.05
		c-0.88,0-1.937,0-2.993-0.352c0,0.352-0.176,0.352-0.176,0.704c0.704,1.057,1.584,2.817,2.113,5.106
		c0.704,2.29,1.056,3.874,1.056,4.93c0,1.761-1.056,3.169-3.521,4.226l0,0c-0.881,0.352-1.408,1.584-1.408,3.521
		c0,0.352,0,0.704-0.177,0.881c-0.352,0.352-0.527,0.527-0.88,0.703c-0.352,0.177-0.704,0.177-0.881,0.177
		c-1.407-0.177-2.641,0.704-3.697,2.465c-1.584,3.169-2.641,5.282-3.345,6.338v0.176c-1.408,1.761-2.993,3.698-5.106,5.458
		c-1.585,1.408-2.817,2.816-3.874,4.049c1.76,2.994,2.641,5.458,2.641,7.042c0,0.353-0.352,1.408-0.881,3.169
		c2.466,0,4.226,0,5.107,0.353c2.992,0,4.225,1.233,4.049,3.521c0-0.176,0.176-0.176,0.176-0.176
		c0.176,0.353,0.176,0.528,0.352,0.88c0-0.352,0-0.527,0.352-0.352c0.176,0.176,0.353,0.352,0.353,0.704
		c0.175,0.176,0.175,0.352,0.175,0.704c0.176-0.176,0.88,0.352,2.289,1.584c1.937-1.584,3.872-3.168,5.809-5.105h0.176
		c2.464-1.761,5.634-2.641,9.507-2.641c0.177,0,0.353,0,0.529,0c11.268,4.049,17.253,5.986,17.781,6.162l0,0
		c3.521,0,6.515,1.408,8.803,3.698c1.585,1.408,2.641,2.641,3.697,3.521l2.113-2.816c0.352-0.704,0.528-1.761,0.528-2.994
		c0.176-2.112,1.232-3.521,3.345-4.753c2.113-1.233,3.346-3.169,3.521-5.458v-0.176c0-4.402,0.176-7.923,0.352-10.563l0,0
		c0.353-5.282,1.585-8.628,3.169-10.211c1.409-1.584,2.817-4.05,4.578-7.571v0.176C758.23,650.384,758.406,650.031,758.582,649.68z"
		/>
	<path style="fill:#CCCCCC;" d="M695.376,634.362c0-0.528,0.176-0.88,0.528-1.232c0-0.176,0.177-0.528,0.352-1.056
		c-0.527-0.177-0.88-0.529-1.232-0.881c-3.169,0.176-6.338,0.881-9.86,2.112c-4.578,1.409-7.218,2.289-8.275,2.289
		c-13.204,0.704-21.831,0.88-25.88,0.88c-0.177,0-0.353,0-0.529,0c-7.57-2.641-11.796-3.873-12.325-3.873
		c-3.521,0-6.338,1.057-8.803,2.994c-0.175,0-0.175,0-0.175,0.175c-0.176,0-1.057,1.233-2.641,3.521
		c0.175,0.529,0.528,1.409,0.88,2.466c0.175,0.175,0.175,0.528,0.175,0.88c-0.175,0.352-0.352,0.527-0.527,0.88
		c-0.177,0.176-0.528,0.352-0.881,0.528c-2.112,0.352-3.873,1.057-5.281,1.584c-2.113,0.88-3.345,1.761-3.521,2.817
		c0,1.056,0.352,2.464,0.704,3.873c0,0.176,0,0.176,0,0.352c0.528,1.936,1.409,4.226,2.817,6.866
		c0.704-0.88,1.408-1.232,2.288-1.408c7.923-2.113,12.853-3.168,14.965-3.168c7.042,0,12.677,1.936,16.902,5.81
		c3.521,2.993,6.338,4.753,8.275,4.753c2.288,0,4.577-0.352,7.042-1.232c0.176,0,0.352,0,0.528,0
		c2.113-0.176,4.401,1.408,6.691,4.754c1.056-1.057,2.112-2.289,3.521-3.521c1.761-1.585,3.345-3.169,4.401-4.93
		c0.704-0.88,1.761-2.992,3.169-5.986c0-0.176,0-0.176,0.176-0.176c1.584-2.641,3.345-4.049,5.282-4.226
		c0.352-2.817,1.407-4.401,3.521-5.105l0,0c0.704-0.353,1.057-0.529,1.232-0.881c0-0.88-0.352-2.113-0.881-3.873
		c-0.527-2.288-1.408-3.873-2.112-4.753C695.552,635.242,695.376,634.714,695.376,634.362z"/>
	<path style="fill:#CCCCCC;" d="M543.79,617.284c-1.057,0.881-2.465,2.113-4.226,3.698c0.705,3.697,4.578,7.042,11.62,10.036
		c1.232,0.352,5.106,2.288,11.972,5.458c1.408,0,2.641,0.176,4.225,0.528h-0.176c2.993,0.88,4.225,2.113,4.049,3.874
		c0,0.528-0.704,2.465-2.112,6.162c0.352,0.704,2.465,1.761,6.338,3.345h-0.176c4.401,1.584,7.394,2.465,9.154,2.465
		c9.859,0,19.719-0.528,29.755-1.585c-0.176-1.057-0.353-1.937-0.353-2.817c-0.176-2.465,1.761-4.401,5.81-5.986
		c1.233-0.528,2.641-1.056,4.226-1.584c-2.641-0.176-6.162-4.93-10.74-14.085c-1.057-2.465-3.169-4.226-5.81-5.634
		c-3.169-1.76-4.577-3.697-4.401-5.809c-0.351-1.233,1.057-2.641,4.05-4.754c1.056-0.527,1.585-1.057,2.112-1.232
		c-2.641-2.641-3.696-4.226-3.521-4.93c-0.175-1.056,0.529-2.993,1.761-5.634c1.056-1.937,1.585-3.521,1.76-4.049
		c0-6.69-1.76-12.676-4.753-18.31c-1.76-2.994-3.169-5.282-4.05-6.866c-0.175,0.352-0.528,0.88-0.88,1.232l0,0
		c-1.408,2.113-2.816,3.345-4.226,4.05c-2.288,0.88-3.521,1.408-3.698,1.585c0,0.176,0.353,1.232,1.233,3.169
		c0,0.353,0.177,0.704,0,0.88c0,0.352-0.176,0.704-0.352,0.881c-0.881,1.232-4.049,3.169-9.683,5.985l0,0
		c-3.873,2.113-5.986,3.346-6.163,3.521c0,0.705,0.176,1.761,0.705,3.521c0.175,0.176,0.175,0.353,0.175,0.529
		c0,5.81-3.521,8.803-10.915,8.979h-0.177c-0.352,0-0.704,0.176-0.88,0.352c0,0.529,0.176,1.409,0.528,2.289
		c0.705,1.761-0.352,3.169-3.169,4.401c-1.761,0.528-3.345,0.88-5.105,0.88c-2.641,0.175-4.225-1.409-4.93-4.93
		c-0.175-1.232-0.88-1.937-1.761-2.112c-1.584,0-2.464,0.351-2.641,1.232c-0.175,0.88-0.175,2.817,0,5.282
		c0,0.529-0.175,0.88-0.352,1.409c-2.113,2.289-3.521,3.697-4.402,4.577H543.79z"/>
	<path style="fill:#CCCCCC;" d="M619.143,666.757L619.143,666.757c-4.225,1.937-6.515,2.993-6.866,3.345v0.176
		c-0.528,0.704-0.704,2.465-0.528,4.93v0.175c0.352,3.698-0.176,6.338-1.761,8.099l0,0c-2.641,2.994-5.282,4.754-7.923,5.105
		c-2.289,0.529-4.226,0.88-5.457,1.057c0.352,1.761,0.527,2.993,0.527,3.874c0.177,0.527-0.527,2.992-2.113,7.57
		c0.529,0.528,0.88,1.057,1.409,1.761c1.232,1.584,2.993,4.578,5.459,8.979l-0.177-0.176c0.177,0.352,0.352,0.704,0.704,1.057
		c0.177,0,0.177,0,0.177,0c2.112,2.993,6.338,7.042,12.676,12.324c1.937-0.176,3.521-0.527,4.754-1.057h-0.176
		c1.585-1.056,4.93-1.584,9.683-1.584c1.232-0.352,3.345,0.528,6.338,2.465c1.761,0.704,3.169,1.233,4.754,1.057
		c4.049-0.353,11.092-2.289,21.127-5.986c0-0.176,0.175-0.176,0.175-0.176c5.282-1.233,8.275-2.641,9.508-4.402h-0.176
		c1.057-1.76,2.465-4.929,4.401-9.155c0.176,0,0.176-0.175,0.176-0.352c0.528-0.704,2.465-2.465,5.81-5.282
		c0.176-0.176,0.352-0.352,0.528-0.528c2.289-2.112,5.458-4.753,9.331-8.098c-1.409-1.409-2.464-2.465-2.817-2.993l0.176,0.353
		c-0.529-0.353-0.88-0.88-1.056-1.057c-0.177-0.176-0.177-0.352-0.353-0.352c-0.352-0.704-0.528-1.232-0.528-1.585
		c0,0-0.352,0-0.88,0c-0.353,0-0.704-0.176-0.881-0.352c-0.527,0-2.641-0.175-6.514-0.175c-0.528,0-0.88,0-1.056-0.353
		c-0.352-0.177-0.529-0.528-0.705-0.88c0-0.528,0-0.88,0.176-1.233c0.88-2.289,1.409-3.697,1.584-4.049
		c-0.176-1.408-0.88-3.345-2.465-5.986c-0.176-0.176-0.176-0.352-0.352-0.528l0,0c-1.937-2.993-3.521-4.577-4.754-4.929
		c-2.817,0.88-5.282,1.232-7.746,1.232c-2.641,0.176-6.338-1.761-10.563-5.634c-3.698-3.345-8.627-4.929-14.614-4.929
		c-1.936,0-6.69,1.056-14.084,3.169c-0.528,0.176-1.056,0.704-1.761,1.584c0,0,0,0.176,0,0.352c-0.176,0-0.176,0-0.176,0
		c0,0.176-0.176,0.352-0.176,0.528C620.903,665.349,620.023,666.229,619.143,666.757z"/>
	<path style="fill:#CCCCCC;" d="M580.762,690.701c-1.937-1.408-4.93-2.465-8.803-2.641l0,0c-14.614-1.408-23.064-3.345-25.353-6.338
		c-2.112-2.112-4.577-3.169-7.747-2.992h-0.177c-2.464,0.175-4.577-0.881-6.337-3.169c-1.937-2.642-2.817-3.873-2.817-4.049
		c-0.176,0-0.353-0.176-0.353-0.176c-2.288-1.937-4.401-3.698-6.338-5.106c-0.704,2.817-2.112,5.106-3.873,6.69
		c-0.529,0.352-0.88,0.881-1.409,1.409c0,0-0.176,0.176-0.176,0.352c-0.528,0.353-0.705,0.881-0.705,1.233
		c0.177,1.057,1.409,2.641,3.698,4.753c3.521,2.994,5.106,6.163,5.106,9.508c0,3.696-1.056,6.162-3.169,7.217
		c-2.641,1.761-4.753,3.521-5.986,5.282c-2.113,2.641-3.697,6.163-5.105,10.564l0,0c-0.529,1.937-1.233,3.698-1.76,5.282
		c1.936,1.233,5.282,2.817,10.211,4.578h0.176c4.929,1.937,7.394,5.458,7.394,10.74c0,1.057-0.881,3.345-2.641,6.338v0.176
		c-1.408,2.288-2.112,3.521-2.289,4.049c0,4.402,1.233,8.979,3.874,14.085c2.641,5.458,5.986,8.627,10.035,9.859
		c2.817-3.169,4.578-5.634,5.458-7.395c0-0.177,2.641-2.641,7.747-7.394c0.176-0.176,0.704-0.353,1.232-0.353
		c0.352,0,0.704,0,0.881,0.353c0.527-0.705,1.232-1.585,1.937-2.641c0.176-0.177,0.176-0.177,0.352-0.353
		c0.704-0.881,2.465-1.585,5.105-1.761c0.88,0,1.761-0.176,2.289-0.176c0.176-2.465,0.704-4.753,1.584-6.866
		c0.88-1.761,1.233-3.169,1.408-4.049c-1.056-2.465-1.408-4.226-1.408-4.753c0-0.881,0.704-3.522,2.113-7.57v0.175
		c1.232-3.521,1.76-5.81,1.936-6.69c0-0.528,0.176-0.88,0.528-1.232c0.352-0.352,0.704-0.528,1.232-0.528h8.451
		c1.232-0.353,4.401-0.353,9.507,0c4.578-0.353,8.45-1.584,11.971-3.697c-2.288-4.225-3.872-7.042-4.929-8.627l0,0
		c-0.528-0.704-1.233-1.232-1.585-1.936c-0.176,0-0.176,0-0.176-0.177c-1.408-1.408-3.169-2.464-5.106-3.345
		c-1.409-0.528-2.641-2.112-3.874-4.753C581.994,692.462,581.29,691.229,580.762,690.701z"/>
	<path style="fill:#CCCCCC;" d="M614.741,728.554c-0.352,0-0.704-0.176-1.056-0.352c-5.986-5.106-10.387-8.979-12.852-11.971
		c-4.225,2.464-8.803,4.049-13.908,4.401c-0.177,0-0.177,0-0.353,0c-4.93-0.352-7.923-0.352-8.803,0c-0.176,0-0.353,0-0.353,0
		h-7.218c-0.352,1.408-1.057,3.345-1.936,5.986c-1.233,3.521-1.761,5.458-1.938,6.338c0.177,0.527,0.528,1.76,1.233,4.049
		c0.175,0.176,0.175,0.352,0.175,0.529c0,1.056-0.527,2.992-1.584,5.633h-0.176c-0.88,2.113-1.408,4.401-1.408,6.867
		c0,0.528,0,0.704-0.176,1.056c-0.176,0.352-0.528,0.352-0.704,0.529c-0.176,0.176-1.584,0.352-4.401,0.704
		c-1.408,0.176-2.464,0.352-2.993,0.704c-2.465,3.522-4.401,5.282-5.81,4.93c-0.176,0-0.352,0-0.528,0
		c-3.345,2.993-5.106,4.577-5.106,4.577c-0.88,1.586-2.112,3.521-4.049,5.987c3.521-0.353,9.155-1.585,16.726-3.874
		c0.353,0,0.704,0,1.057,0c0.352,0.176,0.704,0.352,0.88,0.704c2.465-0.176,4.578-1.232,6.69-2.993h0.176
		c1.938-1.76,2.817-3.346,2.465-4.401c-0.176-0.529-0.176-0.88-0.176-1.233c0.176-0.352,0.353-0.704,0.705-0.88
		c0.175-0.353,0.528-0.528,1.056-0.528c1.057,0,2.993-0.176,5.987-0.704c0-0.175,0.175-0.175,0.352-0.175
		c2.817,0,5.105,1.056,7.219,3.345v-0.176c1.408,1.408,2.817,2.113,4.402,2.113c1.407,0,2.993-0.352,4.929-1.057
		c2.29-1.056,3.874-1.585,4.93-1.585c1.232,0,2.993,0.704,5.282,2.112c1.232,0.88,2.112,1.409,2.641,1.409
		c0.528,0,1.232-0.705,2.112-1.761c2.113-2.113,3.521-3.169,4.93-2.993c3.522-0.176,5.106,1.761,5.106,5.81
		c0,0.352-0.528,4.578-1.761,12.677c0.177,1.76,0.528,2.993,1.057,4.049c0.88,0.88,2.465,2.993,5.106,6.515
		c2.464,0,5.105,0.352,7.746,1.232c2.641,0.528,4.578,0.88,5.634,0.88c1.232,0,3.169-0.352,5.81-1.056l0,0
		c0.176-0.177,0.352-0.177,0.704-0.177c0,0,0,0,0.176,0c0.352-0.176,0.529-0.352,0.88-0.88c0.353-1.408,0.704-3.522,0.704-6.163
		c0-2.817-0.528-6.338-1.408-10.739c-1.233-4.226-1.761-6.514-1.761-6.69c0-0.529,0.176-0.88,0.528-1.233
		c4.578-5.458,6.867-9.507,7.043-12.148c-0.352-0.88-1.761-1.408-4.753-1.937l0,0c-5.282-1.232-7.923-3.169-7.571-5.81
		c0-0.176,0.705-3.697,2.113-10.74c-1.408-0.353-2.817-0.704-4.401-1.584c0,0,0,0-0.176,0c-1.937-1.232-3.169-1.937-3.873-1.937
		c-0.176,0-0.176,0-0.352,0c-3.874,0-6.69,0.352-8.099,1.056C619.67,728.026,617.558,728.554,614.741,728.554z"/>
	<path style="fill:#CCCCCC;" d="M721.081,426.084c-1.057,0-2.817,0.88-5.106,2.464c-2.464,1.585-3.874,2.465-4.578,2.465
		c-2.288,0-3.873-2.465-5.282-7.219c-0.88-4.93-1.408-7.747-1.584-8.275c-5.282,1.232-8.099,1.761-8.803,1.761
		c-0.177-0.529-1.232-1.761-2.817-3.346c-1.76-1.584-2.992-2.288-3.521-2.288c-0.528,0-2.112,0.88-4.578,2.641
		c-2.993,1.937-4.401,3.698-4.401,5.458c0,0.704,0.705,2.464,2.113,4.753c0,1.586-1.584,2.817-4.754,3.874
		c-0.88,0.353-1.232,1.057-1.056,2.289c0,1.233,0,4.226,0.175,8.628c-0.175,1.056-0.704,1.761-1.936,2.288
		c0.352,1.233,0.528,2.817,0.88,4.578c1.232,1.937,3.521,3.345,6.866,4.226c0.176,0.176,0.528,0.176,0.704,0.527
		c0.88,0.705,1.584,2.29,1.76,4.578c0.177,1.057,0.352,1.936,0.881,2.464c0,0,1.232,0.529,3.697,1.585
		c2.641,1.408,4.049,2.993,3.872,4.577c0,3.169-1.584,7.923-4.753,14.438c-2.994,5.986-4.401,10.211-4.578,12.852
		c0,3.698,1.584,5.987,4.929,6.515c6.338,1.232,10.563,3.169,12.853,5.809c0.527,0.705,1.937,1.937,4.049,3.346
		c1.761,1.408,3.17,3.169,4.05,5.633l0,0c1.408,3.698,2.992,6.515,5.282,8.452c0,0.175,0,0.175,0,0.175l6.69,6.514
		c0.352-3.521,1.056-6.866,2.464-10.036l0,0c2.289-5.457,5.634-8.803,9.859-9.683c0.528-0.176,0.88-0.176,1.408,0.176
		c0.353,0.177,0.529,0.529,0.705,0.881c0.176,0.528,0.176,0.88,0,1.232c-0.176,0.704,0,1.408,0.528,2.641
		c0.353,0.881,0.88,1.408,1.408,1.585c1.409-0.177,2.641-1.761,3.521-4.401c-0.175-12.501-2.641-22.712-7.746-30.635h0.176
		c-2.641-3.697-4.578-6.338-5.458-7.746c-1.937-2.817-2.992-5.458-2.817-7.748c0-0.175,0-0.352,0.176-0.704
		c5.458-11.268,8.275-17.606,8.627-18.663c-0.704-2.112-0.88-3.521-0.88-4.577c-0.175-0.529,0.706-3.521,2.641-8.98
		c-0.704-1.232-1.585-1.937-2.641-1.937c-2.288,0.88-3.873,1.233-4.929,1.233c-2.114,0-3.521-0.705-3.874-2.113
		C724.778,426.788,723.37,426.084,721.081,426.084z"/>
	<path style="fill:#CCCCCC;" d="M758.757,424.851c-0.704,0.177-1.056,0.881-1.056,1.938c-0.176,1.056-0.353,1.936-0.705,2.464
		c-1.232,1.057-2.816,1.937-4.929,2.288c-2.113,0-3.345,0.177-3.874,0.353c-4.753,2.817-7.394,4.402-8.274,4.402
		c-0.352,0-0.704-0.176-1.056-0.353c-0.881,2.466-1.233,3.874-1.233,4.226c0,0.88,0.176,2.112,0.705,4.049
		c0.176,0,0.176,0.176,0.176,0.353c0,0.881-2.816,7.57-8.803,19.895c0,1.584,0.88,3.345,2.113,5.458
		c1.057,1.408,2.817,4.049,5.458,7.746l0,0c5.458,8.626,8.275,19.543,8.275,32.747c0,0.177,0,0.352-0.176,0.528
		c-1.409,4.93-3.697,7.395-6.867,7.218c-1.936,0.176-3.345-1.057-4.577-3.698c-0.352-0.704-0.705-1.408-0.705-2.112
		c-2.289,1.408-4.049,3.521-5.457,6.866c-1.409,3.521-2.29,7.57-2.466,11.795c1.057,0.705,2.289,1.937,4.227,3.346
		c2.464,2.112,3.872,3.696,4.049,4.93l0,0c0.176,0.704,0.176,1.76-0.177,3.169c0,0.176,0,0.352,0.177,0.528v0.177
		c0.176,0,0.352,0.175,0.527,0.352l0,0c4.578,2.817,6.867,4.578,6.867,5.105c2.465,5.634,5.457,8.451,8.626,8.627
		c0.528,0,2.642-0.352,6.514-1.232c0.176,0,0.352,0,0.352,0c1.937,0,3.697,0.352,5.634,0.88l19.014-11.62
		c0.352-0.177,0.528-0.352,0.88-0.352c1.584,0,3.874,1.408,7.395,4.225c2.465,2.112,4.049,3.169,4.93,3.345
		c1.407-0.176,4.753-2.288,10.21-6.338c-2.112-1.232-3.168-2.817-3.168-4.578c0-2.465,2.464-5.282,7.57-8.098
		c4.93-2.993,7.395-5.106,7.395-6.867c0-2.465-0.881-5.634-2.641-9.859c-1.937-4.578-3.874-7.042-5.986-7.042
		c-2.289,0-3.697,0-4.049-0.353c-1.585-0.704-2.993-1.232-4.402-1.584c-0.175,0-0.351,0-0.351,0c-6.515,1.408-9.86,0.704-9.86-1.937
		c0.704-0.176,0.88-0.704,0.88-1.408c0.352-2.465,0.528-4.401,0.528-5.634c0-2.641-2.289-4.929-6.866-6.866
		c-4.226-1.938-6.338-4.226-5.986-6.867c0.528-0.176,3.345-0.705,8.45-1.232c4.402-0.528,6.515-1.233,6.515-2.289
		c0.353-1.056,0.527-1.584,0.527-1.76c0-1.233-0.527-3.522-1.76-6.867c-1.232-3.697-1.936-6.514-2.289-8.098v-7.395
		c0-1.408-0.704-2.641-2.113-3.521c-1.585-1.056-2.289-1.936-2.289-2.641s1.408-2.113,4.049-4.049
		c2.641-2.113,3.874-4.402,3.874-6.867c0-1.76-0.881-3.872-2.641-5.809c-1.408-1.585-2.465-2.289-3.345-2.289
		c-3.521,0.176-5.811,0.881-6.691,1.761h-4.402v-2.993c0.352-1.057,1.233-2.113,2.29-2.994c0.88-0.704,1.232-1.584,1.232-2.641
		c0-2.641-2.816-4.049-8.451-4.049c-1.585,0-2.641,0.528-2.993,1.761c-0.528,1.233-2.112,1.937-4.401,2.113
		C761.047,425.027,759.638,424.851,758.757,424.851z"/>
	<path style="fill:#CCCCCC;" d="M704.003,509.888c-2.465-1.761-4.05-2.993-4.754-3.873c-1.937-2.113-5.458-3.698-10.739-4.578
		c-5.106-1.057-7.747-4.225-7.747-10.036c0-2.992,1.584-7.747,4.929-14.436c2.817-5.81,4.226-10.036,4.401-12.853
		c-0.175-0.352-0.88-0.88-1.936-1.408c-2.817-1.232-4.226-1.936-4.578-2.288l0,0c-1.057-0.881-1.584-2.29-1.937-4.578
		c0-0.881-0.353-1.761-0.528-2.29c-4.226-1.408-7.042-3.345-8.451-5.81c0-0.176-0.176-0.353-0.176-0.528
		c-0.352-2.113-0.704-3.698-0.88-4.754c-0.528,0-1.232,0-1.761,0c-1.232-0.177-2.641,0.527-3.873,1.584
		c-1.409,1.233-2.817,1.937-3.874,1.937c-6.338,0-9.507,2.288-9.507,7.219c0,0.527,0.88,1.936,2.288,3.872
		c1.585,2.29,2.466,3.698,2.641,4.754c0.529,4.929,0.88,8.099,0.88,9.331c0,3.521-3.521,6.691-10.387,9.859
		c-6.866,3.17-10.387,5.634-10.387,7.395c0,2.992,1.584,6.69,4.754,11.091c2.993,4.225,4.577,7.747,4.577,10.212
		c0,0.881,0.176,2.641,0.353,5.81c0,0,0,0.176,0,0.353c2.641,3.697,4.754,5.986,6.515,6.866l0,0
		c1.232,0.352,3.521,1.408,6.866,2.817c0,0,0,0,0.176,0c3.345,1.936,5.457,4.401,6.337,7.57c0.352,1.408,2.113,3.169,4.93,4.754
		c3.873,2.464,5.986,4.225,6.338,5.633c0.528,1.057,1.056,3.874,1.761,7.922v-0.176c0.528,2.465,1.408,3.697,2.465,3.873
		c0.704,0,2.817-0.353,6.162-0.88c0.176,0,0.176,0,0.352,0c0.88-0.353,2.466,1.232,4.931,4.578c1.232,1.761,2.288,2.641,3.168,2.817
		c1.409,0,2.817-0.177,3.873-0.352c0.177-0.177,0.352-0.177,0.528-0.177c1.232,0,3.169,1.233,5.81,3.698l0.176,0.176v-0.176
		c0.352-2.113,0.88-3.169,1.937-3.169c0.177,0,0.177,0,0.353,0c1.408-1.761,4.753-5.107,10.211-10.036h-0.176
		c1.409-1.408,3.521-2.465,6.338-2.994c0.528-0.352,1.057-1.056,1.409-1.761l0,0c0.527-1.232,1.231-2.288,2.288-3.345
		c-0.176-0.352-0.176-0.88-0.176-1.408c0,0,0,0,0.176-0.176c0-0.704,0.176-1.408,0.176-1.761c-0.352-0.704-1.409-1.761-2.994-2.993
		l0,0c-2.112-1.761-3.697-3.169-4.578-3.873c-0.175-0.177-0.175-0.177-0.352-0.352c0,0,0,0-0.176,0
		c-0.352-0.352-0.528-0.704-0.704-0.881l-8.275-8.274c-0.176,0-0.176,0-0.176,0c-2.464-2.29-4.577-5.634-6.162-9.859h0.176
		C706.292,512.177,705.235,510.944,704.003,509.888L704.003,509.888z"/>
	<path style="fill:#CCCCCC;" d="M732.348,546.508c0,0,0,0-0.175,0c-0.529,0.528-0.88,1.057-1.233,1.761h0.176
		c-0.704,1.408-1.761,2.641-3.17,3.521c-0.175,0.177-0.352,0.177-0.704,0.177c-1.936,0.352-3.521,1.055-4.578,2.111
		c-0.175,0-0.175,0-0.175,0.177c-6.338,5.986-9.684,8.979-10.036,8.803c0.352,0.528-0.176,1.233-1.585,1.937
		c-0.176,0-0.176,0-0.352,0.176c0.528-0.176,0.704,0.352,0.704,1.408c0,0.353-0.176,0.88-0.528,1.232
		c-0.353,0.352-0.88,0.528-1.233,0.528h-2.641c-0.528,0-0.88-0.177-1.232-0.528c-1.937-1.761-3.169-2.817-3.873-2.993
		c-1.233,0.176-2.817,0.352-4.402,0.352c-1.937,0.175-3.872-1.233-6.162-4.402c-1.232-1.761-1.937-2.817-1.937-2.993
		c-3.521,0.528-5.633,0.88-6.514,0.88c-2.817,0.176-4.754-1.936-5.986-6.515c0,0,0,0,0-0.175c-0.529-3.698-1.057-6.163-1.585-7.219
		h0.176c-0.527-0.704-2.112-2.113-5.105-3.874c-3.698-2.288-5.986-4.578-6.515-6.866l0,0c-0.528-2.289-2.112-4.049-4.401-5.282
		c-0.175,0-0.175,0-0.175,0c-3.346-1.408-5.458-2.289-6.69-2.817l0,0c-2.112-0.881-4.578-3.345-7.571-7.394
		c-1.409,1.056-3.169,2.641-5.458,4.402c-1.408,1.936-2.465,3.521-3.345,4.401c-0.529,0.528-1.057,1.056-1.584,1.408
		c0.704,1.408,1.056,2.641,1.232,3.697c0.176,0,0.176,0,0.176,0c2.993,1.584,4.754,4.226,5.282,8.099
		c0.704,3.168,1.761,5.81,3.169,7.746c1.057,1.056,2.465,3.873,4.401,8.274c2.113,4.578,3.169,7.219,2.994,8.275
		c0.176,0-0.528,1.936-1.585,5.81c0,0.353,0.352,0.88,0.704,1.409c0,0,0,0,0,0.176c0.881,1.408,1.408,2.816,1.408,4.225
		c0.177,2.289-1.936,4.401-6.513,5.985c-0.881,1.938-1.585,3.345-2.113,4.402c0,0.176,0.176,0.528,0.176,1.057v0.176
		c0.353,1.232,5.634,3.345,16.022,6.69c1.057-0.176,2.817-0.88,5.81-2.113c0.176,0,0.353-0.175,0.704-0.175
		c3.521,0,5.282,1.936,5.282,5.457c0,0.529-0.352,1.937-1.232,4.754c0,0.353,0.352,0.704,0.88,1.232l0,0
		c0.528,0.352,1.232,0.528,1.937,0.704c0.176,0,0.352-0.176,0.352-0.176c0.177-0.352,0.529-0.528,0.704-0.528
		c0.353-0.352,0.529-0.352,0.881-0.352h1.232c0.528,0,0.88,0.177,1.233,0.528c0.352,0.352,0.528,0.705,0.528,1.232v4.402
		c0,0.352,0,0.527-0.176,0.88c-0.176,0.353-0.352,0.528-0.704,0.704c-0.528,0.352-0.88,0.88-0.88,1.937
		c0,1.584,0.88,2.465,2.465,2.641c0.352-0.176,1.409-0.704,2.993-1.76l0,0c2.465-1.584,4.226-2.289,5.282-2.289
		c1.231,0,2.992,0.88,5.633,2.641c1.409,1.056,2.289,1.761,2.641,1.761c1.232-0.176,5.987-4.754,14.085-13.909
		c0-0.176,0.176-0.176,0.353-0.176c4.578-2.817,7.043-4.93,7.57-6.162c0.529-2.289,1.057-3.874,1.409-4.93l0,0
		c1.056-2.112,2.817-3.345,5.282-3.698c2.465-0.704,4.049-0.88,4.402-1.055c0.88-0.529,1.408-1.585,1.76-2.817h-0.176
		c0.352-2.465,2.113-4.05,5.634-4.754c1.232-0.176,2.816-0.352,4.753-0.704c0.704-0.352,2.113-1.761,4.578-3.874
		c2.817-2.641,5.106-4.049,7.042-4.049l0,0h10.563c0-0.352,0.177-0.528,0.177-0.704l0,0c0.527-1.056,0.704-2.29,0.704-3.697
		c0-0.704-0.353-1.761-1.057-3.345c-0.528-0.88-0.704-1.585-1.057-1.937c-1.584-0.704-3.168-0.88-4.753-0.88
		c-4.225,0.88-6.514,1.232-7.043,1.232c-4.578,0.176-8.626-3.346-11.796-10.74c-0.352-0.176-2.112-1.409-5.633-3.521H732.348z"/>
	<path style="fill:#CCCCCC;" d="M693.792,619.221c-0.881-0.352-1.937-1.056-3.169-1.937c-1.584-1.056-2.817-1.761-3.521-1.936
		c-0.529,0.175-1.761,0.88-3.345,1.76c-2.641,1.761-4.226,2.289-4.93,2.289c-4.049,0-5.986-2.113-5.986-6.162
		c0-2.113,0.704-3.521,1.761-4.402v-0.88c-0.527,0.176-1.057,0.353-1.761,0.176l0,0c-1.232-0.176-2.464-0.704-3.521-1.409
		c-1.761-1.056-2.641-2.641-2.641-4.401c0-0.176,0-0.176,0.176-0.528c0.704-2.288,1.057-3.521,1.232-3.874
		c0-1.056-0.528-1.761-1.408-1.761c-3.698,1.586-5.986,2.113-7.043,2.113c-0.176,0-0.352,0-0.528-0.176
		c-12.676-3.873-18.839-7.219-18.839-9.86v-0.175c-0.352-0.529-0.352-1.057-0.352-1.76c0-0.353,0.177-0.881,0.529-1.057
		c0.528-0.88,1.408-2.465,2.112-4.754c0.176-0.176,0.352-0.527,0.528-0.704c0.177-0.176,0.352-0.352,0.704-0.352
		c2.994-1.056,4.578-2.112,4.93-2.993c0-0.88-0.352-1.585-0.704-2.29c-1.057-1.584-1.584-2.816-1.584-3.696
		c0-0.176,0-0.353,0.176-0.529c1.057-3.345,1.584-5.105,1.584-5.105c0-0.88-0.88-2.994-2.641-6.69v-0.176
		c-1.761-3.874-2.993-6.338-3.874-7.394c-1.936-2.289-3.345-5.458-3.873-9.507l0,0c-0.528-2.464-1.584-4.225-3.169-5.282
		c-1.761-0.176-2.641-0.88-2.288-2.289c-0.177-0.88-0.528-2.113-1.057-3.521c-0.351,0-0.704,0-0.88,0
		c-0.88,0-1.585-0.176-2.289-0.88c-2.113,1.761-5.458,3.521-10.212,5.106c-3.169,1.057-4.929,1.408-5.105,1.057
		c0.176,0.528,0.176,0.88,0,1.232l-1.585,4.401c-0.176,0-0.176,0.176-0.352,0.176c-1.408,2.641-2.641,4.049-3.696,4.401
		c-0.176,0.704-0.529,1.584-1.057,2.817v0.176c-0.704,1.232-1.057,2.465-1.057,3.521c0,0.352,0,0.704-0.352,1.055
		c0,0.176-0.352,0.352-0.528,0.529c-0.352,0.176-0.704,0.351-1.057,0.176h-1.056c0,0.704-0.175,1.408-0.528,1.936l0.528,1.057
		c1.585,2.289,2.289,3.345,2.113,3.697c0.176,0.881-0.352,2.994-1.584,6.163c0.704,1.408,2.288,4.049,4.753,8.099l0,0
		c3.521,6.162,5.282,12.852,5.282,20.07c0,0.88-0.704,2.993-1.936,5.634c-1.056,1.936-1.586,3.346-1.586,4.049
		c0,0.353,1.233,1.408,3.346,3.345c0.175,0,0.352,0.176,0.528,0.529c0,0.175,0,0.352,0,0.704c0.353,1.057-1.232,2.464-4.049,4.578
		c-1.585,0.88-2.289,1.584-2.466,1.761c0,0.88,0.88,1.76,2.641,2.641c3.346,1.936,5.811,4.402,7.219,7.217
		c3.345,6.515,5.81,10.564,7.395,11.797c1.937-2.289,2.993-3.698,3.345-4.049c3.169-2.641,6.866-3.873,11.091-3.873
		c0.705-0.176,5.107,1.233,13.205,3.873c4.05,0,12.5-0.176,25.353-0.88c0.88,0,3.345-0.705,7.218-2.113
		c3.17-1.233,5.987-1.761,8.803-2.113c0-0.175,0-0.175,0-0.352c0-0.352,0-0.704,0.176-0.88c0.177-0.353,0.353-0.528,0.704-0.704l0,0
		c0.177-2.641,0.353-4.401,0.353-5.281C693.968,620.101,693.792,619.749,693.792,619.221z"/>
	<path style="fill:#CCCCCC;" d="M757.877,587.002c0,0.528,0.705,1.76,1.937,3.345c1.761,2.641,2.465,4.401,2.465,5.457
		c0,2.641,1.76,6.338,5.106,10.74c4.049,5.282,5.986,10.211,5.81,14.965c0,0.881-0.177,3.521-0.528,7.923
		c1.937-1.233,3.873-1.761,5.81-1.761c1.408,0,3.697,0.88,6.69,2.288l0.176,0.176c1.938,1.057,3.521,1.938,4.754,2.817
		c2.112-1.585,5.105-3.873,8.803-6.514c0,0-0.177-0.177-0.177-0.353c-0.176,0-0.352,0-0.352-0.176
		c-0.352-3.873-0.528-6.162-0.528-7.042c0-4.402,2.113-7.395,6.162-8.803c4.226-1.409,6.866-4.402,7.57-9.156v-3.521
		c1.233,0,3.169-1.057,5.634-3.169c2.465-1.937,3.521-3.169,3.521-3.873c-2.288-5.106-3.521-7.747-3.521-8.451
		c0-4.05,2.465-6.867,7.57-8.275c-1.76-2.289-3.697-4.049-5.633-5.458c-1.057-0.527-1.409-1.761-1.409-3.345
		c1.937-4.402,2.993-7.923,2.993-10.388c0-2.816-3.168-4.93-9.683-6.162c-1.056-0.176-1.937-0.352-2.641-0.704
		c-7.57,5.809-12.324,8.451-14.084,8.451c-1.233,0-3.698-1.233-7.219-4.049v-0.177c-2.288-1.761-3.697-2.993-4.753-3.169
		l-17.43,10.74c0.176,0.352,0.353,0.88,0.704,1.584c1.056,2.113,1.585,3.697,1.408,4.754c0,1.937-0.352,3.697-1.057,5.282
		c-0.176,0.352-0.352,0.704-0.352,1.233v0.175c-0.352,1.056-0.704,2.641-0.704,4.401l0,0c-0.176,2.289-1.585,4.401-4.402,6.515
		C758.934,584.538,757.877,585.769,757.877,587.002z"/>
	<path style="fill:#CCCCCC;" d="M892.035,610.946c-0.88,0-1.937,0.88-2.994,2.112c-1.056,1.409-2.641,1.937-4.401,1.937
		c-2.641,0-7.042,2.113-13.556,5.986c-5.811,4.05-8.803,5.81-8.979,5.81c-1.056,0-2.113,0.88-3.521,2.465
		c-1.232,1.584-4.401,2.641-9.155,2.817c-2.112,0.175-4.226,1.056-5.986,2.816c-2.112,2.113-4.578,3.346-7.218,3.874
		c-3.345,0.527-7.922,2.641-13.908,6.162c-1.057,0.528-1.937,1.057-2.641,1.408c-0.176,1.585-0.352,3.521-0.704,5.634
		c0.176,0.881,0.704,2.465,2.113,4.93c0,0.176,0.176,0.528,0.176,0.705c0,5.282-0.704,9.859-2.289,13.556
		c-0.528,1.409-1.408,3.169-2.465,4.93c1.937,0.88,4.578,1.76,8.099,2.464c0,0,0,0,0.175,0.177c4.401,1.584,6.515,4.929,6.515,9.683
		c0.176,2.465-1.232,4.929-4.049,7.394c-1.761,1.584-2.641,2.289-2.994,2.289c0.176,1.408,0.704,2.993,1.761,4.929
		c1.408,2.113,2.817,3.345,4.401,3.521h0.176c4.049,0,6.69,0.176,7.57,0.528c1.761,0.528,2.641,1.761,3.17,4.05
		c0.704,0.704,1.232,1.057,1.585,1.232h-0.177c0.704,0.176,1.233,0.352,1.585,0.352c0,0,0,0,0.176,0.176
		c0.353,0,0.704,0.176,1.057,0.528c1.761,0.528,4.049,1.232,7.219,2.113c0,0,0,0,0.175,0c1.409,0.527,2.817,1.231,4.05,1.937
		c0.527-0.528,0.88-0.88,1.232-1.232c0.529-0.704,0.881-2.113,0.881-4.049c0-1.937,0.352-3.17,1.056-3.697
		c0.88-0.352,2.641-1.409,5.985-3.345c2.817-2.113,3.874-5.634,3.346-10.388c-1.057-1.935-1.585-3.169-1.585-3.873
		c0-1.409,0.881-3.345,2.817-5.635c1.584-2.288,2.994-3.697,4.225-4.225c0.706-0.527,2.641-2.465,5.458-6.162
		c2.817-3.169,4.401-4.93,5.282-4.93c0.704,0,4.401,1.232,10.74,3.521c2.641,0,4.929-0.353,7.042-1.233
		c2.465-1.056,3.521-2.288,3.521-3.521c0-2.817-0.176-6.69-0.88-11.971c-0.528-4.93-0.881-7.923-1.233-8.803
		c-3.345-5.81-5.105-9.508-5.282-10.916c-0.704-5.282-1.408-8.275-2.464-8.627c-0.88-0.529-1.584-0.704-1.761-1.057
		c-0.352-0.353-0.528-1.232-0.704-3.169c1.233-0.528,2.113-1.76,2.994-3.521c0.704-1.409,1.056-2.29,1.056-2.817
		c0-1.409-0.704-2.641-1.761-4.225C895.556,611.827,893.972,610.946,892.035,610.946z"/>
	<path style="fill:#CCCCCC;" d="M880.591,752.85c0-4.225-1.232-7.042-4.049-8.451c-1.586-0.88-6.338-1.761-13.909-2.641
		c-5.106-0.704-7.923-2.289-8.451-4.929c-1.937-5.282-2.994-9.156-2.994-11.797c0-1.584,0.881-3.168,2.817-4.753
		c0-0.175,0.176-0.175,0.353-0.352c-0.88-0.352-1.761-0.704-2.465-1.056c-0.176,0-0.176,0-0.176,0
		c-3.345-1.057-5.986-1.761-7.572-2.289c-0.352-0.176-0.704-0.176-0.88-0.529l0,0c-0.352,0-0.704-0.176-1.056-0.176
		c-0.176,0-0.176,0-0.176,0c-1.057-0.176-2.289-1.232-3.697-2.993c-0.177-0.176-0.353-0.529-0.353-0.88
		c-0.176-0.704-0.528-1.409-1.056-1.584c-0.705-0.353-2.817-0.353-6.515-0.353c-2.817,0-5.282-1.761-7.395-5.105v-0.176
		c-1.585-2.641-2.465-4.754-2.289-6.69c-0.176-0.528,1.233-2.289,4.226-4.93c1.761-1.584,2.641-3.168,2.817-4.753
		c0-3.17-1.232-5.282-4.049-6.338c-4.05-1.057-7.042-1.937-9.332-2.817c-1.232,1.585-2.641,3.521-4.049,5.282
		c-2.993,5.458-5.282,9.507-6.515,11.972c-2.641,4.754-5.81,7.395-9.331,8.275c-1.761,1.761-7.922,2.994-17.958,3.345
		c-8.979,0.176-14.436,0.704-16.726,1.057c0.176,0.88,0.352,2.113,0.176,3.521l0,0c-0.176,4.401-0.352,7.218-0.352,8.275
		c0,13.732,3.345,21.303,10.035,23.063c7.747,1.585,17.607,6.338,29.578,13.733l0,0c0.353,0.176,2.641,0.528,6.867,1.057
		c2.112,0.352,3.521,1.056,4.225,2.289c0,0,0,0,0,0.176c0.352,0.527,1.232,2.288,2.817,5.105h-0.176
		c2.817,4.578,4.401,8.628,4.753,12.148l0,0c0.176,0.704,1.76,1.761,4.401,3.521c0.177,0,0.177,0.176,0.353,0.353
		c1.057,0.88,1.937,3.169,2.994,6.514c0.88,1.937,2.465,5.106,5.105,9.859c2.817,0.704,5.81,2.289,8.803,4.578l5.634-1.761v-2.289
		c-0.881-0.529-1.585-1.409-1.761-2.466c-0.528-1.232-0.88-2.112-1.408-2.816c-3.521-2.817-5.282-4.754-5.282-5.986
		c0-2.993,2.465-4.577,7.043-4.577c1.584,0,3.697,1.056,5.634,2.992c2.112,1.761,3.345,2.817,3.696,2.817
		c3.346,0,7.923-2.817,13.557-8.451c-0.527-1.761-0.88-2.817-0.88-3.521c0-2.113,1.057-4.401,3.169-6.69
		c1.937-2.289,3.874-3.697,6.162-4.753c0.529-0.177,1.057-1.233,1.233-2.817c0.177-1.76,0.352-2.817,0.528-3.345
		C879.358,756.019,880.591,753.73,880.591,752.85z"/>
	<path style="fill:#CCCCCC;" d="M803.653,634.009c0-0.175-0.175-1.408-0.528-3.521c-0.176-0.88-0.527-1.584-0.88-1.936
		c-4.93,3.522-8.626,6.162-11.267,8.098c-0.353,0.176-0.704,0.353-1.057,0.353c-0.528-0.176-0.88-0.353-1.233-0.528
		c-0.88-0.88-2.641-1.937-5.106-3.345c-2.288-1.056-4.049-1.761-5.105-1.936c-2.289,0.176-4.402,1.232-6.69,3.345v0.176
		c-1.937,1.76-3.873,4.401-5.634,7.746l0,0c-1.232,2.289-2.113,4.402-2.993,5.986v0.176l0,0c-0.176,0.176-0.176,0.176-0.176,0.176
		c-0.88,1.408-1.409,2.641-1.76,3.521c-1.937,3.873-3.697,6.69-5.106,8.274c-1.232,1.409-1.936,4.05-2.289,8.275
		c-0.176,2.465-0.352,5.986-0.352,10.387c-0.352,3.874-2.112,6.69-5.282,8.628c-0.88,0.352-1.408,1.056-1.584,1.76
		c-0.176,1.937-0.352,3.345-0.704,4.225c-0.177,0.176-0.177,0.353-0.353,0.529l-2.465,3.169c7.747,4.578,12.5,7.571,14.613,8.803
		c2.641-0.88,8.978-1.408,18.662-1.761c9.86-0.352,14.965-0.88,15.494-1.76c0-0.352,0.176-0.704,0.352-1.057
		c0.352-0.176,0.705-0.352,1.057-0.528c2.817-0.527,5.281-2.641,7.395-6.514v0.176c1.408-2.641,3.697-6.69,6.69-12.148
		c0,0,0-0.176,0.176-0.176c1.761-2.289,3.345-4.401,4.754-6.338v-0.175c0,0,0,0,0-0.176c1.584-2.113,2.641-4.225,3.521-6.162
		c1.232-3.17,1.761-7.042,1.937-11.62c-1.585-3.168-2.465-5.281-2.289-6.162c0-0.176,0-0.176,0-0.176
		c0.177-1.408,0.353-2.465,0.528-3.521c-2.289,1.057-3.873,1.409-4.93,1.409c-8.45,0-12.676-2.466-12.676-7.219
		C801.892,637.707,803.653,634.89,803.653,634.009z"/>
	<path style="fill:#CCCCCC;" d="M693.792,694.574v0.176c-3.345,2.817-6.163,5.106-8.275,7.042c1.056,2.641,2.816,5.458,5.282,8.452
		c2.112,2.641,3.168,5.986,3.168,10.035c0.177,4.401,2.465,11.443,6.866,21.656c1.937,4.225,4.401,11.267,7.571,21.127l0,0
		c0,0.177,0,0.177,0,0.177c2.816,5.809,6.337,8.802,10.564,8.802h0.175c1.409-0.176,3.169,0.881,5.107,2.816l0,0
		c1.585,1.761,2.641,3.346,3.169,4.578c0,0.177,0,0.352,0,0.529v8.098c0,0.705,0.353,1.056,0.88,1.409h-0.176
		c2.993,0.88,4.754,1.584,5.106,1.937v-0.176c1.232,0.704,2.113,2.112,2.29,4.225c0,0.881,0,1.408,0.176,1.761
		c1.232,0.88,5.457,1.233,12.676,1.233c0.176-0.176,1.936-1.937,5.282-5.282c4.578-4.578,7.219-6.867,7.923-6.514
		c1.409-0.177,2.994,0.704,4.578,2.641c0.704,0.704,1.232,1.057,1.408,1.233c0.705,0,1.761-0.352,2.817-1.057
		c1.937-1.057,3.17-1.584,3.874-1.584c5.282,0,8.099,0.528,8.979,1.408l0,0c1.056,0.528,1.408,2.994,1.408,7.218
		c0,2.641,1.233,4.753,3.521,5.986c1.408,0.881,3.345,1.761,5.634,2.817c0.352,0,0.528,0.352,0.704,0.528
		c0.176,0.353,0.352,0.704,0.352,1.057c0,0.88,0.705,2.993,2.113,6.162c0.704,0,1.408,0,2.288,0c0.705,0,1.585,0.176,2.817,0.88
		c1.41,0,2.994-0.704,4.754-1.761c1.761-1.233,2.992-1.761,3.873-1.761c1.056,0,1.936,0.704,2.817,1.937
		c0.704,1.408,2.113,1.937,3.697,1.937c0.704,0,2.289-0.529,4.929-1.761v-2.113c-0.704-1.056-0.175-2.113,1.585-3.168
		c0.88-0.529,2.112-1.409,4.049-2.641c-0.88-1.585-1.232-2.817-1.232-3.17c0-0.176,0.176-0.527,0.88-1.232
		c-2.641-4.754-4.225-7.922-5.105-9.683c-0.177-0.176-0.177-0.176-0.177-0.352c-0.704-2.641-1.584-4.402-2.112-5.282
		c-3.874-2.641-5.986-4.578-5.81-5.986v-0.177c-0.352-2.993-1.761-6.514-4.225-10.564c0,0,0,0,0-0.176
		c-1.408-2.641-2.289-4.402-2.641-4.93c-0.352-0.353-0.88-0.529-1.761-0.704l0,0c-5.106-0.705-7.746-1.232-8.099-1.409v-0.177
		c-11.619-7.217-21.127-11.619-28.521-13.379c-8.626-1.585-12.852-10.388-12.852-26.409c0-1.057,0.176-3.873,0.352-8.451
		c0.176-1.408,0-2.288-0.352-2.817c-1.408-1.231-6.69-4.401-15.317-9.507c-0.353-0.176-0.704-0.352-1.057-0.704
		c-0.176-0.176-0.176-0.176-0.353-0.352c-1.056-0.88-2.816-2.465-5.105-4.929c-1.76-1.585-3.873-2.642-6.513-2.642
		c-0.881-0.176-7.042-2.113-18.487-6.162c-2.817,0-5.106,0.704-7.043,1.937c-2.465,2.112-4.753,4.225-7.042,6.163
		c0,0-0.176,0-0.176,0.176C694.672,693.87,694.32,694.223,693.792,694.574z"/>
	<path style="fill:#CCCCCC;" d="M697.665,743.342c-4.754-10.739-7.218-18.486-7.218-23.063c0-3.169-0.704-5.81-2.289-7.747
		c-2.465-2.992-4.226-5.81-5.458-8.274c-2.113,1.761-3.521,2.993-3.873,3.697c-1.937,4.05-3.345,7.219-4.401,8.979v0.176
		c-1.057,2.465-5.106,4.578-11.62,6.162c-9.331,3.346-16.197,5.458-20.599,6.163c-1.584,7.043-2.289,10.564-2.289,10.74
		c0.177,0.88,1.761,1.761,4.754,2.464c5.282,0.881,7.747,2.642,7.57,5.282c0,3.169-2.288,7.747-7.394,13.908
		c0.177,0.704,0.704,2.641,1.408,5.282v0.177c1.057,4.578,1.584,8.451,1.584,11.443c0,3.345-0.352,5.81-1.056,7.395
		c-0.529,1.585-1.409,2.465-2.465,2.993v0.176c0.705,1.408,2.465,3.874,5.282,7.747c0.176,0,0.176,0.176,0.352,0.352
		c0.176,0.528,0.528,1.937,0.528,4.401c0.176,0.177,0.176,0.528,0.176,0.528c0.176,0,0.353,0,0.528-0.177
		c0.528-0.175,0.881-0.175,1.233,0.177c0.352,0,0.704,0.176,0.88,0.704c0.176,0.352,0.352,0.704,0.176,1.232
		c-0.704,2.817,0,5.459,1.761,7.57c1.232-1.584,2.817-3.521,4.578-5.986c3.521-5.282,6.162-7.746,7.746-7.746
		c1.057,0,2.994,2.465,6.163,7.042l0.88,1.761c0,3.345,1.057,6.162,3.169,8.803c2.29,2.817,5.811,4.401,10.036,4.401
		c6.866,0,11.796-2.993,14.965-8.803c0.352-0.704,1.232-2.641,2.464-6.162c0.704-1.76,1.409-2.641,2.113-2.641
		c1.408,0,2.465,0.704,3.697,2.289c0.88,1.409,1.408,2.817,1.408,3.874c0,1.584,0.704,3.168,2.113,4.225
		c1.232,1.232,1.937,2.113,1.937,2.465c0,1.761-0.704,3.873-1.761,6.514c0,0,0.176,0.353,0.88,0.881
		c0,1.408,0.529,2.641,1.761,3.345c1.937,1.056,3.346,1.937,3.873,2.817c-1.056,1.408-3.168,3.169-6.338,5.458
		c-1.232,0.88-1.937,2.817-1.937,5.633c0,0.705,0.353,1.409,1.057,2.113c0.704,0.88,1.057,1.76,1.057,2.641
		c0,3.168,0.704,4.929,2.288,5.282c1.761-0.353,3.521-0.528,5.282-0.528c2.466,0,5.107,2.289,7.571,6.69
		c2.465,4.402,5.458,6.515,8.803,6.515c0.88,0,3.521-0.177,7.923-0.881c1.232,0,2.993,0.528,4.93,1.585
		c2.113,1.056,3.521,1.584,4.401,1.584c4.401,0,6.69-0.88,6.866-2.641c-1.232-0.88-1.761-1.761-1.761-2.465
		c0-1.057,0.705-2.817,2.466-5.106c1.584-2.465,2.288-3.697,2.288-4.226c0-0.88-0.528-1.76-1.408-2.464
		c-1.057-0.88-1.585-1.936-1.585-3.345c0-2.641,3.697-4.049,11.092-4.578c7.57-0.528,11.443-2.464,11.795-5.633
		c-1.584-2.465-2.288-4.754-2.288-6.867c0-1.408,1.057-2.816,3.169-4.401c2.465-1.584,3.697-2.992,3.874-4.049
		c0.704-2.641,1.584-4.225,2.817-5.106c-1.233-2.817-1.938-4.753-2.113-6.162c-2.112-0.881-3.698-1.585-5.106-2.289l0,0
		c-3.521-2.112-5.282-5.105-5.282-9.155c0-2.641,0-4.05-0.176-4.577c-0.704-0.352-2.817-0.528-6.69-0.528
		c-0.353,0.176-1.057,0.528-1.937,1.056c-1.937,1.233-3.521,1.761-4.754,1.585c-1.056,0.175-2.288-0.529-4.049-2.465l0,0
		c-0.704-0.88-1.408-1.408-1.937-1.408c-0.176,0.176-1.937,1.937-5.458,5.458h0.176c-4.578,4.401-7.219,6.69-7.923,6.338
		c-8.451,0-13.556-0.529-14.965-2.113l0,0c-0.88-0.528-1.408-1.937-1.408-4.225c-0.176-0.529-0.353-1.057-0.529-1.232
		c-0.175-0.177-0.175-0.177-0.175-0.177c-0.353-0.175-1.586-0.704-4.227-1.408l0,0c-2.112-0.704-3.169-2.288-3.169-4.753v-7.747
		c-0.352-0.881-1.056-1.761-2.113-2.993c-1.056-1.056-1.937-1.585-2.641-1.76c-5.633,0.352-10.387-3.346-13.909-11.092
		c-0.176,0-0.176-0.176-0.176-0.176C702.067,754.435,699.602,747.568,697.665,743.342z"/>
	<path style="fill:#CCCCCC;" d="M546.958,520.803c-0.704,1.057-1.585,2.114-2.113,2.994c-1.232,1.584-1.761,2.992-1.761,4.049
		c1.761,6.866,2.641,10.388,2.641,10.564c0,0.528-1.584,2.994-4.929,7.219c-3.169,4.401-4.754,9.154-4.754,14.436
		c0,3.697,1.409,11.444,4.401,23.24c0,1.937-0.88,3.874-2.641,5.634c-1.056,1.056-1.584,1.935-1.761,2.816
		c-0.352,1.232-0.704,2.113-0.88,2.465c-0.704,0.88-2.465,2.112-5.457,3.873c-3.346,1.937-5.634,2.817-6.867,2.817
		c-1.761,0-3.169-0.352-4.225-0.704c0,0.176-0.177,0.176-0.177,0.352c-0.175,0.176-0.175,0.176-0.175,0.176
		c-0.88,1.409-1.76,2.289-2.289,3.345c0.881,1.585,3.345,3.874,7.042,6.867c5.105,4.225,9.86,6.69,14.261,7.394
		c1.584-1.408,2.993-2.641,4.049-3.697l0,0c0.705-0.704,1.936-1.936,3.521-3.697c-0.176-2.641-0.176-4.401,0-5.282
		c0-2.993,2.113-4.401,6.162-4.401c2.817,0,4.578,1.584,5.282,4.929c0.176,1.408,0.705,2.113,1.409,2.113
		c1.232,0,2.465-0.177,3.697-0.705l0,0c0.704-0.176,1.056-0.176,1.056,0c0-0.176,0-0.176,0-0.176
		c-0.352-1.409-0.527-2.465-0.527-3.345l0,0c0-2.465,1.584-3.697,4.401-3.697c4.754,0,7.219-1.76,7.571-5.282
		c-0.704-1.936-0.88-3.345-0.88-4.226c-0.352-1.408,2.465-3.521,8.099-6.513v-0.177c4.05-1.937,6.515-3.345,7.747-4.401
		c-1.056-3.345-1.056-5.282,0.353-6.162l0,0c0.352-0.353,1.937-1.057,4.754-2.113h-0.177c0.881-0.352,1.761-1.232,2.817-2.641
		c0.88-1.408,1.76-2.465,2.641-3.168c0.88-2.641,1.408-4.578,1.408-5.282c-0.176,0-0.528-0.527-1.408-1.584
		c0-0.176,0-0.176-0.176-0.353l-1.409-2.641c0-0.352-0.176-0.704,0-0.88c0-0.352,0-0.528,0.176-0.704
		c-0.176-0.353-0.176-0.528-0.176-0.704c0-0.353,0-0.704,0.176-1.057c0.881-1.761,2.113-2.641,3.698-2.288h0.176
		c0.352-1.057,0.704-2.113,1.232-3.346c0.528-1.232,0.705-1.936,0.88-2.112c-0.175-1.584,0.705-2.641,2.641-2.817
		c0.176,0,0.353,0,0.705,0c-0.352-0.528,0-1.232,0.704-2.641l1.584-3.521c-0.176-1.584,2.289-3.345,7.395-4.929
		c4.753-1.761,8.098-3.346,9.859-5.107h0.176c-0.351-1.408-0.527-2.288-0.704-2.815c-0.353-2.114-2.112-4.402-4.753-7.043
		c-1.761-1.585-2.993-2.993-3.873-4.578c-0.704-1.585-1.409-2.817-1.937-3.697l-7.042-7.043c-1.761-3.874-2.465-7.395-2.113-10.564
		c-2.641,0.528-5.282,0-8.098-1.936c-2.993-2.289-5.107-3.345-6.338-3.345c-4.049,0-6.338,1.057-6.69,3.522
		c-0.88,4.578-1.761,7.395-2.641,8.803c-0.881,1.057-3.169,2.289-6.867,3.698c-5.105,1.761-8.803,3.169-10.74,4.225
		c-3.697,0.528-6.337,1.057-8.098,1.408c-2.817,0.529-5.282,2.289-6.867,5.107c-0.88,1.408-1.408,2.992-1.761,4.753
		C547.838,518.339,547.486,519.923,546.958,520.803z"/>
	<path style="fill:#CCCCCC;" d="M413.153,578.727c-2.464-2.289-3.697-3.345-3.873-3.345c-3.521,0-5.986,0.88-7.042,2.641
		c-0.88,1.233-1.409,3.697-1.409,7.395c0,3.521,0.352,5.457,0.881,6.162c0.352,0.352,1.408,0.88,3.521,1.585
		c1.409,0.528,2.289,1.584,2.289,2.992c0,1.233-3.345,4.402-9.683,10.036c-2.641,7.923-4.578,11.796-5.634,11.796
		c-1.76-0.528-3.169-0.88-3.874-0.88c-1.585,0-3.521,1.408-5.458,4.049c-0.528,0.353-1.76,1.408-3.698,2.993
		c-1.76,1.056-2.465,1.937-2.465,2.641c0,0.88,0.176,1.761,0.88,3.345c0,1.761-1.409,2.817-4.226,3.169
		c-2.817,0.529-4.225,1.937-4.225,4.05c0,1.056,0.704,2.641,2.113,4.753c1.232,2.289,1.937,4.225,1.937,5.81h-8.803v2.641
		l1.76,0.881l-0.528,0.88c-2.112,0.88-3.169,1.408-3.345,1.408c-1.585-0.528-2.817-0.704-3.697-0.704
		c-1.409,0-2.993,1.057-4.402,2.817c2.465,2.289,6.162,5.106,11.092,8.451c1.408,1.232,3.169,2.288,5.105,2.993
		c2.289,0.88,4.05,1.761,5.458,2.641c0.88,0.88,2.817,1.056,5.81,0.88c2.641,0,4.577,0.704,5.986,2.289
		c0.352,0.176,1.584,1.761,3.697,4.753c2.465,2.642,4.402,4.049,5.81,4.049c1.056,0,1.937-0.176,2.465-0.352
		c0.704-0.352,5.634-2.465,15.141-6.338c7.395,0,12.324,1.408,14.789,4.049c0.352,0.353,1.056,0.881,2.113,1.585
		c1.232-2.112,2.113-3.873,2.641-5.458c-0.176-2.816,0.176-4.929,1.057-6.514c1.057-1.937,2.817-2.817,5.282-2.817
		c1.937-0.353,4.753,2.113,8.803,7.218c0.176,0.352,0.176,0.528,0.352,1.057c0,0.176-0.175,0.528-0.175,0.88
		c-1.937,3.521-2.817,5.634-2.994,6.69c0.177,1.408,1.233,2.993,3.169,4.754c3.169,2.641,5.282,5.282,5.987,7.922
		c1.408,4.402,2.288,6.69,2.288,7.042c1.584,1.408,4.929,2.641,10.211,3.345c1.233-3.698,2.641-5.634,4.578-5.81l0,0
		c1.056-0.352,3.521-0.175,7.219,0.352c0.704,0,1.057-0.176,1.408-0.352c-0.352-0.352-0.528-0.88-0.528-1.408
		c0-2.288,0.881-4.049,2.994-5.458l0,0c0.88-0.704,1.408-1.584,1.408-2.464c0-1.761-0.88-5.634-2.289-12.148
		c-1.761-6.866-2.641-10.388-2.466-10.74c-0.175-1.584,0.705-2.817,2.642-3.697c1.232-0.88,2.641-1.232,3.697-1.232
		c2.641,0,6.691,1.408,11.973,4.225c4.93,2.465,10.564,4.226,16.55,5.106c0.352-0.353,0.704-0.704,1.232-1.057
		c1.409-1.408,2.466-3.521,2.994-6.338c-2.289-1.585-4.225-2.641-5.81-3.345c-1.233-0.352-3.874-2.464-8.099-6.513l0,0
		c-4.578-4.226-7.395-6.867-8.626-7.748c-1.233-0.88-4.754-2.992-10.917-6.162c-5.457-2.993-8.099-5.282-7.922-7.043
		c0-2.465-0.704-5.81-2.113-9.859c-5.81-0.352-9.684-1.761-11.972-4.401c-2.464-2.641-5.282-4.578-8.275-6.162
		c-3.345-1.057-5.457-1.937-6.69-2.641c-2.464-3.346-4.578-5.458-6.162-6.163c-8.803-7.571-14.437-11.973-17.078-13.204
		c-1.233-0.529-2.817-1.761-5.106-3.521c-2.288-1.937-3.345-3.169-3.697-3.874C416.85,582.601,415.441,581.191,413.153,578.727z"/>
	<path style="fill:#CCCCCC;" d="M490.443,622.038c-2.288,0.704-5.633,1.232-10.564,1.232c1.409,4.049,1.937,7.394,1.937,9.859
		c0.352,0.705,2.288,1.937,6.162,4.049c6.338,3.345,10.036,5.458,11.268,6.338c1.232,0.881,4.225,3.522,8.979,8.098
		c3.521,3.346,5.986,5.282,6.866,5.811c2.113,0.704,4.578,2.112,7.571,4.225v0.176c2.465,1.585,5.282,3.873,8.451,6.514l0.176,0.177
		c0.528,0.528,1.761,2.113,3.873,4.93c0.88,1.231,2.113,1.76,3.346,1.76c4.401-0.352,7.922,1.056,10.739,4.226
		c2.289,2.112,9.859,3.873,23.064,5.106c4.754,0.352,8.275,1.584,10.564,3.521c1.057,0.704,2.113,2.288,3.345,5.105
		c0.528,1.584,1.233,2.464,1.937,2.994c1.584,0.527,2.817,1.231,4.05,2.288c0.88-2.992,1.408-4.578,1.408-4.929
		c0-0.881-0.353-2.465-0.704-4.578c-0.177-0.528-0.177-0.88,0-1.233c0.176-0.527,0.527-0.704,1.057-0.88
		c0.88-0.352,3.345-0.881,7.57-1.585c1.936-0.527,3.874-1.76,5.81-4.049c0.705-1.233,1.056-2.993,0.88-5.634
		c-0.352-3.698,0-6.338,1.232-7.571c0.353-0.528,2.994-2.113,8.099-4.401h-0.176c0.352-0.176,0.704-0.529,1.232-0.88
		c-1.761-3.169-2.817-5.81-3.521-7.922c-10.388,1.056-20.422,1.584-30.635,1.584c-1.936,0-5.458-0.88-10.388-2.817
		c-5.986-2.288-8.803-4.577-8.627-6.69c0-0.352,0.176-0.529,0.176-0.704c1.408-3.169,1.937-4.93,2.112-5.282
		c-0.175,0-0.704-0.176-1.408-0.353v-0.176c-1.232-0.352-2.288-0.352-3.345-0.352c-0.176,0-0.529,0-0.88-0.176
		c-7.042-3.345-11.092-5.105-12.148-5.634c-8.451-3.345-13.029-7.394-13.733-12.324c-4.93-1.056-10.035-3.697-15.317-8.099
		c-5.282-4.226-8.099-7.218-8.627-9.331c0-0.352,0-0.88,0.176-1.233c0.529-1.231,1.584-2.816,2.994-4.401
		c0-0.176,0.176-0.352,0.176-0.528c-1.056-0.353-2.465-0.528-4.226-0.528c-2.641,0-4.577,2.112-5.986,6.162
		c-1.057,2.993-1.761,6.163-2.465,9.684C497.134,618.165,492.908,620.981,490.443,622.038z"/>
	<path style="fill:#CCCCCC;" d="M581.466,760.068c-1.409-1.408-2.817-2.112-4.578-2.112c-1.761,0.352-3.169,0.704-4.401,0.704
		c0,2.112-1.233,4.225-4.049,6.338c-3.169,2.642-6.691,4.049-10.388,4.049c-0.528,0-0.88-0.176-1.231-0.528
		c-8.275,2.465-14.261,3.521-17.606,3.521c-0.177,0-0.353,0-0.529,0c-0.175,1.232-0.352,2.465-0.527,4.049
		c0,0.88,0.176,2.113,0.527,3.522c0.177,0,0.353,0,0.353,0c4.402,0,7.923,0.88,10.74,2.993l0,0c2.641,1.76,4.049,3.345,3.873,5.106
		c0,2.465-1.585,4.753-4.93,7.042c0.528,0.704,1.057,1.585,1.584,2.641h-0.176c0.528,1.232,2.113,4.401,4.401,9.86
		c0.88,1.761,1.232,4.929,1.232,8.978c0.177,1.585,1.057,2.466,2.817,2.466h0.176c1.584,0.175,3.873,0.175,7.218,0
		c0.176,0,0.529,0.175,0.88,0.352c0.176,0,0.528,0.352,0.705,0.704c0,0.176,0.175,0.529,0.175,0.88
		c-0.175,2.817,0.177,5.282,0.881,7.042V827.5c0.353,0.528,0.528,0.881,0.88,1.585c0.353-0.529,0.529-0.881,0.88-1.057
		c0.529,3.168,4.227,8.275,10.917,14.965c1.76,2.288,4.049,3.874,7.043,4.401c1.407,0.176,5.634,0.353,12.5,0.353
		c13.556,1.056,20.599-0.353,20.599-4.227c-1.585-1.408-2.289-2.816-2.289-4.049c0-1.056,0.528-2.289,1.761-4.049
		c1.232-1.76,2.288-2.641,3.52-2.641c0.353,0,2.289,0.704,5.81,2.289c2.817,0,4.578-0.704,5.106-1.937
		c1.232-2.289,2.112-3.698,2.993-4.226l7.747-4.929v-3.874c-2.112,0-3.169-0.88-2.993-2.641c0-1.585,1.057-2.641,3.169-2.994
		c1.937-0.527,3.169-0.352,3.345,0c0.352,0.529,0.88,0.705,2.113,0.705c0.176-0.176,0.704-0.352,1.232-0.705
		c-2.465-2.641-3.521-5.456-3.169-8.803c-0.352-0.175-0.528-0.352-0.88-0.352c-0.88-0.353-1.584-1.409-1.761-2.817
		c-0.176-0.176-0.176-0.176-0.176-0.353c0-1.584-0.175-2.816-0.352-3.345c-3.169-4.225-5.106-7.043-5.634-8.274
		c-0.176-0.352-0.176-0.529-0.176-0.705c-2.112,0.529-3.697,0.705-4.754,0.705c-1.409,0-3.521-0.352-6.515-1.057
		c-2.641-0.704-5.282-1.057-7.747-1.057c-0.352,0-0.527-0.176-0.704-0.176c-0.352-0.176-0.528-0.352-0.704-0.528
		c-2.993-3.874-4.753-6.338-5.458-7.219h-0.177c-1.232-1.584-1.76-3.697-1.76-6.514v-0.176c1.233-7.748,1.76-11.796,1.76-12.148
		c0-1.408-0.527-2.289-1.584-2.289c-0.529,0.176-1.233,0.704-2.289,1.937c-1.761,1.937-3.521,2.992-4.753,2.817
		c-0.88,0.175-2.464-0.529-4.578-1.937c-1.408-1.057-2.465-1.41-3.345-1.584c-0.704,0.175-1.937,0.528-3.521,1.231
		c-2.29,1.057-4.402,1.41-6.338,1.41C585.868,763.238,583.403,762.182,581.466,760.068z"/>
	<path style="fill:#CCCCCC;" d="M547.838,785.42c-2.288-1.408-5.105-2.288-8.451-2.288c-0.352,0.176-0.705,0.353-1.232,0.353l0,0
		c-0.177,0.175-0.177,0.175-0.177,0.175c-6.162,1.937-9.859,2.994-11.268,2.994c-3.697,0-7.922-1.585-12.5-4.93
		c-4.578-3.169-6.69-6.338-6.514-9.155h-2.817c-0.176,0-0.176,0-0.352,0c0.176,1.761,0,4.578-0.177,8.275
		c0,2.641,1.057,5.458,2.994,8.627c2.465,3.873,4.049,6.69,4.401,8.627c1.057,4.226,3.521,9.86,7.042,17.078
		c-1.936,1.937-2.993,2.993-2.993,3.169c0,2.464,2.465,4.754,7.748,6.866c5.105,2.289,8.098,4.754,8.978,7.571
		c0,0.175,0,0.352,0,0.528v0.176c1.057,5.458,1.761,8.451,2.113,8.979c0.88,2.112,3.169,3.169,6.866,3.169
		c2.113,0,4.93-0.704,8.275-1.761c1.231,0,2.817,0.352,4.753,1.233c2.993,0,6.338-2.465,9.683-7.219
		c1.233-2.289,2.29-4.05,3.17-5.634c-0.88-1.231-1.409-2.288-1.937-3.168c-0.88-1.761-1.233-4.05-1.233-6.691
		c-2.465,0-4.401,0-5.809-0.176c-4.049-0.176-6.162-2.113-6.162-5.987c0-3.345-0.352-5.986-0.881-7.57
		c-2.464-5.459-3.874-8.627-4.401-9.86c-0.352-0.88-0.704-1.408-1.056-1.76h0.176c-0.352-0.177-0.527-0.177-0.704-0.352
		c-0.352,0-0.704-0.176-1.057-0.529c-0.176-0.351-0.352-0.704-0.352-1.232v-0.352c0-0.353,0-0.704,0.176-0.88
		c0.176-0.353,0.528-0.528,0.704-0.704c3.346-1.761,5.106-3.521,5.282-5.282C549.951,787.006,549.071,786.301,547.838,785.42z"/>
	<path style="fill:#CCCCCC;" d="M486.921,665.524c-0.704,0-1.231,0.352-1.937,0.704c-0.527,0.352-0.88,0.528-0.88,0.704
		c0,0.353,0.88,3.698,2.465,9.86v0.176c1.408,6.69,2.289,11.091,2.289,12.852c0,1.937-0.88,3.874-2.817,5.282
		c-0.704,0.527-1.057,1.057-1.408,1.761c0,0,0,0,0.176,0c0.352,0.352,0.528,0.88,0.528,1.76c0.176,2.817-1.761,4.401-5.458,4.401
		c-0.176,0-0.176,0-0.176,0c-3.169-0.527-5.106-0.527-6.162-0.527c-0.88,0.527-1.585,2.112-2.289,4.929
		c0,0.352-0.353,0.704-0.88,1.057c-0.176,0.176-0.528,0.352-1.057,0.176c-7.394-1.057-12.148-2.641-13.908-4.93c0,0,0,0-0.177,0
		c-0.176-0.352-1.056-2.992-2.817-8.099c-0.704-2.111-2.288-4.225-4.929-6.337l0,0c-2.993-2.641-4.401-5.107-4.401-7.395
		c0-1.233,0.88-3.697,2.817-7.394c-2.465-3.169-4.225-4.753-5.282-4.93c-0.88,0-1.761,0.353-2.113,1.057
		c-0.704,1.057-0.88,2.817-0.704,4.93c0,0.352,0,0.528,0,0.704c-0.704,1.761-1.761,3.874-3.169,6.338
		c1.056,1.233,1.585,2.641,1.408,4.578c0.528,0.176,2.289,1.056,5.282,2.641c-2.113,2.994-4.225,5.634-6.162,7.922
		c-0.88,1.584-1.233,4.578-1.233,9.331c0,1.409,0.177,3.697,0.881,7.042c0,0.176,0.705,1.057,2.113,2.817
		c1.584,1.76,2.288,3.345,2.288,4.753c0,1.937-1.408,4.226-4.049,6.338c-1.233,1.056-2.113,1.936-2.994,3.169
		c2.466,0,5.282,0,8.276,0h0.176c1.584,0,3.345,1.761,5.633,5.457l0,0c1.761,3.345,2.641,5.986,2.641,7.747
		c0.176,0,0.705,0.177,1.76,0.881h1.761c0.705-4.226,3.521-8.275,8.979-12.324c5.105-3.874,8.979-5.81,11.796-5.81
		c3.345,0,6.69,1.936,10.211,6.162c2.641,3.169,4.93,4.93,7.043,4.93c5.282,0,7.922-1.585,8.099-4.754
		c0-4.577,0.88-7.218,2.817-8.098l-0.176,0.175c1.408-1.056,2.817-3.345,4.401-7.042c0-0.175,0-0.175,0.176-0.175
		c0.704-1.937,1.408-3.874,2.112-6.162c1.585-4.93,3.346-8.628,5.634-11.621c1.585-2.113,3.874-4.225,7.043-6.162
		c0.88-0.704,1.408-2.113,1.408-4.225c-0.175-2.466-1.408-4.754-3.873-6.867c-3.521-3.169-5.105-5.633-4.93-7.394
		c0-0.529,0-0.88,0.176-1.233c-5.986-1.057-11.268-2.817-16.022-5.458C492.732,666.933,489.211,665.7,486.921,665.524z"/>
	<path style="fill:#CCCCCC;" d="M443.083,738.413c-1.232-2.289-2.113-3.521-2.641-3.697c-3.874,0-7.219,0-10.036-0.176
		c-0.175,0.352-0.352,1.057-0.528,1.409c-0.528,3.522-1.761,6.163-3.521,7.923c-0.529,0.704-1.937,1.584-4.049,3.168
		c-1.584,0.88-2.465,2.289-2.465,3.874l0.352,1.408c0,1.232,1.761,2.993,5.281,4.929c3.521,1.937,5.282,4.05,5.282,6.162
		c0,2.113-1.057,3.697-3.521,4.754c-2.289,1.233-3.521,2.113-3.521,2.817c0,1.584,0.528,3.168,1.76,4.753
		c0.704,0.88,1.938,2.289,4.05,4.226c1.936,2.288,3.345,4.049,4.401,5.456c0.353,0.529,1.409,0.705,3.17,0.705
		c2.112,0,3.697-0.88,4.753-2.641c1.056-1.761,2.113-2.641,3.169-2.641c0.704,0,1.937,0.528,4.225,1.408
		c2.641,1.057,4.049,2.113,4.049,2.994c0,1.232,0.353,2.288,1.233,3.169c0.881,0.88,1.761,1.233,2.641,1.233
		c0.88,0,2.289-0.529,4.049-1.761c1.938-1.409,2.994-2.817,2.994-4.226c-0.528-2.112-0.88-3.521-0.88-4.401
		c0-2.112,2.113-4.049,6.163-5.633c4.401-1.937,6.866-3.521,7.57-5.106c0.353-0.88,1.761-2.289,4.226-4.05
		c2.289-1.937,3.873-3.345,4.049-4.225c0-0.176,0-1.761-0.176-5.282c0-1.761,0.88-2.641,2.817-2.641c1.233,0,3.874,1.76,7.922,5.282
		c3.522,3.168,5.634,5.105,6.163,6.162c1.057,1.761,1.584,3.521,2.113,5.282c0,0,0,0,0.175,0h5.634c0.528,0,0.881,0.176,1.233,0.352
		c0.175,0.352,0.528,0.528,0.528,1.056c0.176,0.352,0,0.705-0.176,1.057c-0.704,2.113,0.704,4.578,4.578,7.395
		c4.049,2.641,7.57,4.049,10.563,4.225c1.233-0.176,4.049-0.88,8.627-2.289c-0.528-2.289-0.704-3.873-0.704-5.106c0,0,0,0,0-0.176
		c0.176-1.409,0.352-2.817,0.528-3.874c-4.929-1.408-8.978-5.282-12.148-11.62c-2.817-5.633-4.225-10.915-4.225-15.669
		c0-0.88,0.88-2.817,2.817-5.986c1.232-2.289,1.938-3.697,2.112-4.578c0-3.521-1.76-6.162-5.282-7.395
		c-4.753-1.936-8.274-3.345-10.387-4.576c-1.761,3.345-3.345,5.633-4.929,6.513c0,0,0,0,0,0.176
		c-0.704,0.528-1.057,2.289-1.057,4.929c0.176,5.634-3.698,8.275-11.62,8.275c-2.817,0-5.986-1.937-9.683-6.162
		c-2.641-3.169-5.282-4.754-7.571-4.93c-2.113,0.176-5.458,1.937-9.683,5.106c-4.93,3.873-7.571,7.746-7.571,11.267
		c0,0.353-0.175,0.88-0.527,1.233c-0.353,0.352-0.881,0.528-1.233,0.528h-4.049c-0.176,0-0.528,0-0.88-0.176
		c-2.817-1.585-4.225-3.169-3.873-4.226C445.196,742.991,444.491,740.878,443.083,738.413z"/>
</g>
<g id="&#xBA85;&#xCE6D;">
	<g>
		<path d="M563.391,538.644v-1.116h10.02v1.116H563.391z M565.484,532.728c0.7-0.464,1.662-0.696,2.886-0.696
			c1.248,0,2.218,0.226,2.91,0.678c0.692,0.452,1.038,0.998,1.038,1.638c0,0.632-0.346,1.172-1.038,1.62
			c-0.691,0.448-1.662,0.672-2.91,0.672c-1.224,0-2.186-0.222-2.886-0.666c-0.7-0.444-1.05-0.986-1.05-1.626
			C564.435,533.731,564.784,533.191,565.484,532.728z M564.65,542.627v-3.156h1.32v2.027h6.504v1.128H564.65z M566.559,535.217
			c0.464,0.236,1.068,0.354,1.812,0.354c0.744,0,1.352-0.118,1.824-0.354c0.472-0.236,0.708-0.526,0.708-0.87
			c0-0.368-0.234-0.672-0.702-0.912c-0.468-0.24-1.078-0.36-1.83-0.36c-0.736,0-1.338,0.12-1.806,0.36
			c-0.468,0.24-0.702,0.536-0.702,0.888C565.862,534.684,566.095,534.981,566.559,535.217z"/>
		<path d="M581.185,537.825c-0.408,0.048-0.824,0.09-1.248,0.126c-0.424,0.036-0.852,0.061-1.284,0.078
			c-0.464,0.024-1.27,0.036-2.418,0.036c-1.148,0-1.746,0-1.794,0v-1.116h1.212l-0.036-3.288h-0.924v-1.104h5.928v1.104h-0.888
			l-0.036,3.191c0.296-0.016,0.556-0.036,0.78-0.06c0.224-0.024,0.46-0.052,0.708-0.084V537.825z M576.787,539.367
			c0.66-0.404,1.626-0.606,2.898-0.606c1.264,0,2.228,0.202,2.892,0.606c0.664,0.404,0.996,0.91,0.996,1.518
			c0,0.6-0.332,1.102-0.996,1.506c-0.664,0.404-1.629,0.607-2.892,0.607c-1.264,0-2.228-0.202-2.892-0.607
			c-0.664-0.404-0.996-0.906-0.996-1.506C575.796,540.277,576.126,539.771,576.787,539.367z M576.889,536.949
			c0.328-0.008,0.608-0.013,0.84-0.013c0.232,0,0.472-0.004,0.72-0.012l0.024-3.264h-1.62L576.889,536.949z M581.497,541.665
			c0.456-0.208,0.684-0.468,0.684-0.78c0-0.336-0.228-0.602-0.684-0.798c-0.456-0.196-1.06-0.294-1.812-0.294
			c-0.76,0-1.366,0.098-1.818,0.294c-0.452,0.196-0.678,0.458-0.678,0.786c0,0.312,0.226,0.574,0.678,0.786
			c0.452,0.211,1.058,0.317,1.818,0.317C580.437,541.977,581.04,541.873,581.497,541.665z M582.229,538.701v-2.256h-1.428v-1.056
			h1.428v-0.78h-1.428v-1.056h1.428v-1.428h1.296v6.576H582.229z"/>
		<path d="M590.567,538.225v4.608h-1.32v-4.608h-4.272v-1.116h6.984c0.151-0.496,0.282-1.072,0.39-1.729
			c0.108-0.656,0.166-1.256,0.174-1.8h-6.468v-1.128h7.848c-0.008,0.704-0.07,1.508-0.186,2.412s-0.254,1.652-0.414,2.244h1.704
			v1.116H590.567z"/>
	</g>
	<g>
		<path d="M696.375,488.642v-1.128h4.344v-2.508h-3.072v-5.412h7.56v1.116h-6.252v3.168h6.348v1.128h-3.252v2.508h4.356v1.128
			H696.375z"/>
		<path d="M707.19,485.527v-1.116h4.32v-1.032h-3.108v-4.176h1.272v1.056h5.016v-1.056h1.284v4.176h-3.096v1.032h4.32v1.116H707.19z
			 M709.218,489.457c-0.688-0.372-1.032-0.83-1.032-1.374c0-0.552,0.336-1.012,1.008-1.38c0.672-0.368,1.668-0.552,2.988-0.552
			c1.304,0,2.298,0.184,2.982,0.552c0.684,0.368,1.026,0.828,1.026,1.38c0,0.544-0.342,1.002-1.026,1.374
			c-0.684,0.372-1.678,0.558-2.982,0.558C710.894,490.015,709.906,489.829,709.218,489.457z M710.34,488.743
			c0.452,0.168,1.066,0.252,1.842,0.252c0.768,0,1.382-0.076,1.842-0.228c0.46-0.152,0.69-0.372,0.69-0.66
			c0-0.304-0.23-0.536-0.69-0.696c-0.46-0.16-1.074-0.24-1.842-0.24c-0.8,0-1.42,0.072-1.86,0.216
			c-0.44,0.144-0.66,0.368-0.66,0.672C709.663,488.347,709.888,488.575,710.34,488.743z M714.69,481.291h-5.016v0.972h5.016V481.291
			z"/>
		<path d="M723.567,485.225v4.608h-1.32v-4.608h-4.272v-1.116h6.984c0.151-0.496,0.282-1.072,0.39-1.728
			c0.108-0.656,0.166-1.256,0.174-1.8h-6.468v-1.128h7.848c-0.008,0.704-0.07,1.508-0.186,2.412s-0.254,1.652-0.414,2.244h1.704
			v1.116H723.567z"/>
	</g>
	<g>
		<path d="M752.375,526.652v-1.128h4.368v-2.7h-3.156v-5.34h1.296v4.212h6.528v1.128h-3.36v2.7h4.356v1.128H752.375z"/>
		<path d="M770.827,522.396c-0.44,0.072-1.054,0.136-1.842,0.192s-1.414,0.088-1.878,0.096v1.704h-1.296v-1.692h-2.292v-1.08h3.36
			c0.592,0,1.324-0.038,2.196-0.114c0.872-0.076,1.456-0.142,1.752-0.198V522.396z M765.019,517.638
			c0.456-0.404,1.116-0.607,1.98-0.607c0.88,0,1.544,0.2,1.992,0.6c0.448,0.4,0.672,0.86,0.672,1.38
			c0,0.536-0.228,1.003-0.684,1.398c-0.456,0.396-1.116,0.594-1.98,0.594c-0.872,0-1.534-0.2-1.986-0.6
			c-0.452-0.4-0.678-0.864-0.678-1.392C764.334,518.5,764.562,518.042,765.019,517.638z M765.175,527.64v-2.856h1.32v1.716h6.252
			v1.141H765.175z M765.931,519.665c0.232,0.229,0.592,0.342,1.08,0.342c0.488,0,0.846-0.114,1.074-0.342
			c0.228-0.227,0.342-0.446,0.342-0.654c0-0.224-0.114-0.45-0.342-0.678c-0.228-0.227-0.59-0.342-1.086-0.342
			c-0.488,0-0.846,0.114-1.074,0.342c-0.228,0.229-0.342,0.454-0.342,0.678C765.583,519.219,765.699,519.438,765.931,519.665z
			 M771.259,525.335v-1.067h-2.4v-1.021h2.4v-6.12h1.284v8.208H771.259z"/>
		<path d="M779.567,523.225v4.608h-1.32v-4.608h-4.272v-1.116h6.984c0.151-0.496,0.282-1.072,0.39-1.729
			c0.108-0.656,0.166-1.256,0.174-1.8h-6.468v-1.128h7.848c-0.008,0.704-0.07,1.508-0.186,2.412s-0.254,1.652-0.414,2.244h1.704
			v1.116H779.567z"/>
	</g>
	<g>
		<path d="M682.254,521.554c-0.016,0.704-0.14,1.354-0.372,1.95c-0.231,0.596-0.54,1.13-0.924,1.602
			c-0.44,0.536-0.964,0.996-1.572,1.38c-0.607,0.384-1.268,0.688-1.979,0.912c-0.056-0.088-0.168-0.23-0.336-0.426
			c-0.168-0.196-0.332-0.366-0.492-0.51c0.544-0.144,1.078-0.346,1.602-0.606c0.524-0.26,0.986-0.582,1.386-0.966
			c0.319-0.296,0.588-0.628,0.804-0.996c0.216-0.368,0.352-0.772,0.408-1.212h-3.612v-1.128H682.254z M678.942,531.447
			c-0.712-0.388-1.068-0.946-1.068-1.674c0-0.712,0.364-1.264,1.092-1.656c0.728-0.392,1.628-0.588,2.7-0.588
			c1.104,0,2.022,0.194,2.754,0.582c0.732,0.388,1.099,0.942,1.099,1.662c0,0.728-0.364,1.286-1.092,1.674
			c-0.728,0.388-1.648,0.582-2.76,0.582C680.562,532.029,679.654,531.835,678.942,531.447z M679.932,530.662
			c0.452,0.224,1.034,0.336,1.746,0.336c0.736,0,1.328-0.108,1.776-0.324c0.448-0.217,0.672-0.509,0.672-0.876
			c0-0.376-0.224-0.674-0.672-0.894c-0.448-0.22-1.04-0.33-1.776-0.33c-0.72,0-1.304,0.106-1.752,0.318
			c-0.448,0.212-0.672,0.506-0.672,0.882C679.254,530.142,679.48,530.438,679.932,530.662z M685.266,524.685v2.76h-1.284v-6.336
			h1.284v2.46h1.416v1.116H685.266z"/>
		<path d="M692.831,527.371v1.044h3.108v3.48h-1.344v-2.364h-6.276v-1.116h3.168v-1.044h-4.296v-1.128h10.008v1.128H692.831z
			 M688.402,525.451v-4.248h1.272v1.068h5.016v-1.068h1.284v4.248H688.402z M694.69,523.339h-5.016v1.021h5.016V523.339z"/>
		<path d="M703.567,527.225v4.608h-1.32v-4.608h-4.272v-1.116h6.984c0.151-0.496,0.282-1.072,0.39-1.729
			c0.108-0.656,0.166-1.256,0.174-1.8h-6.468v-1.128h7.848c-0.008,0.704-0.07,1.508-0.186,2.412s-0.254,1.652-0.414,2.244h1.704
			v1.116H703.567z"/>
	</g>
	<g>
		<path d="M679.649,580.663c0.156,0.348,0.358,0.666,0.606,0.954c0.248,0.28,0.53,0.523,0.846,0.731
			c0.316,0.208,0.646,0.372,0.99,0.492c-0.128,0.12-0.274,0.282-0.438,0.486c-0.164,0.204-0.298,0.366-0.402,0.486
			c-0.2-0.096-0.408-0.21-0.624-0.342c-0.216-0.132-0.432-0.282-0.648-0.45c-0.248-0.192-0.482-0.404-0.702-0.636
			c-0.22-0.232-0.406-0.476-0.558-0.732c-0.08,0.232-0.208,0.468-0.384,0.708c-0.176,0.24-0.38,0.468-0.612,0.684
			c-0.224,0.216-0.468,0.416-0.732,0.6c-0.265,0.184-0.512,0.332-0.744,0.444c-0.12-0.112-0.28-0.254-0.48-0.426
			c-0.2-0.172-0.388-0.318-0.564-0.438c0.392-0.184,0.762-0.398,1.11-0.642c0.348-0.244,0.654-0.526,0.918-0.846
			c0.248-0.304,0.444-0.636,0.588-0.996c0.144-0.36,0.216-0.752,0.216-1.176v-1.212h1.38v1.2
			C679.415,579.945,679.493,580.315,679.649,580.663z M678.131,585.235c0.696-0.42,1.64-0.63,2.832-0.63
			c1.2,0,2.146,0.208,2.838,0.624c0.692,0.416,1.038,0.948,1.038,1.596c0,0.632-0.344,1.156-1.032,1.572
			c-0.688,0.416-1.636,0.624-2.844,0.624c-1.192,0-2.136-0.206-2.832-0.618c-0.696-0.413-1.044-0.939-1.044-1.578
			C677.087,586.185,677.435,585.655,678.131,585.235z M679.235,587.665c0.479,0.224,1.06,0.336,1.74,0.336
			c0.696,0,1.284-0.104,1.764-0.312c0.479-0.208,0.72-0.492,0.72-0.852c0-0.376-0.238-0.67-0.714-0.882
			c-0.477-0.212-1.066-0.318-1.77-0.318c-0.68,0-1.26,0.101-1.74,0.3c-0.481,0.2-0.72,0.488-0.72,0.864
			C678.515,587.153,678.755,587.44,679.235,587.665z M683.327,584.545v-3.408h-2.196v-1.152h2.196v-1.86h1.284v6.42H683.327z"/>
		<path d="M691.831,584.371v1.044h3.108v3.48h-1.344v-2.364h-6.276v-1.116h3.168v-1.044h-4.296v-1.128h10.008v1.128H691.831z
			 M687.402,582.451v-4.248h1.272v1.068h5.016v-1.068h1.284v4.248H687.402z M693.69,580.339h-5.016v1.021h5.016V580.339z"/>
		<path d="M702.567,584.225v4.608h-1.32v-4.608h-4.272v-1.116h6.984c0.151-0.496,0.282-1.072,0.39-1.729
			c0.108-0.656,0.166-1.256,0.174-1.8h-6.468v-1.128h7.848c-0.008,0.704-0.07,1.508-0.186,2.412s-0.254,1.652-0.414,2.244h1.704
			v1.116H702.567z"/>
	</g>
	<g>
		<path d="M623.391,609.331v-1.116h4.32v-1.332h1.356v1.332h4.332v1.116H623.391z M629.69,605.232
			c0.256,0.204,0.544,0.374,0.864,0.51c0.376,0.152,0.77,0.272,1.182,0.36c0.412,0.088,0.794,0.16,1.147,0.216
			c-0.152,0.185-0.288,0.356-0.408,0.517c-0.12,0.16-0.236,0.315-0.348,0.468c-0.305-0.04-0.639-0.108-1.003-0.204
			c-0.364-0.096-0.722-0.22-1.074-0.372c-0.344-0.144-0.664-0.316-0.96-0.516c-0.296-0.2-0.536-0.424-0.72-0.672
			c-0.176,0.24-0.396,0.456-0.66,0.648c-0.265,0.192-0.552,0.357-0.864,0.492c-0.344,0.152-0.702,0.278-1.074,0.378
			c-0.372,0.1-0.742,0.182-1.11,0.246c-0.112-0.136-0.238-0.292-0.378-0.468c-0.14-0.176-0.286-0.349-0.438-0.517
			c0.4-0.048,0.812-0.122,1.236-0.222c0.424-0.1,0.816-0.23,1.176-0.39c0.328-0.144,0.613-0.314,0.857-0.51
			c0.244-0.195,0.418-0.426,0.522-0.689h-3.084v-1.116h7.668v1.116h-3.084C629.25,604.787,629.435,605.028,629.69,605.232z
			 M625.376,613.465c-0.668-0.372-1.002-0.85-1.002-1.434c0-0.584,0.334-1.062,1.002-1.434c0.668-0.372,1.666-0.558,2.994-0.558
			c1.32,0,2.32,0.188,3,0.564c0.68,0.376,1.02,0.852,1.02,1.428c0,0.584-0.34,1.062-1.02,1.434c-0.68,0.372-1.676,0.558-2.988,0.558
			C627.047,614.023,626.044,613.837,625.376,613.465z M626.54,612.757c0.452,0.172,1.066,0.258,1.842,0.258
			c0.768,0,1.38-0.084,1.836-0.252c0.456-0.168,0.683-0.408,0.683-0.72c0-0.328-0.227-0.576-0.683-0.744
			c-0.456-0.168-1.068-0.252-1.836-0.252c-0.776,0-1.391,0.082-1.842,0.246c-0.452,0.164-0.678,0.41-0.678,0.737
			C625.862,612.343,626.088,612.585,626.54,612.757z"/>
		<path d="M634.19,612.658v-1.116h4.296v-1.68h-2.988v-3.696h6.084v-1.488h-6.096v-1.116h7.356v3.708h-6.084v1.476h6.348v1.116
			h-3.264v1.68h4.368v1.116H634.19z"/>
		<path d="M650.567,609.225v4.608h-1.32v-4.608h-4.272v-1.116h6.984c0.151-0.496,0.282-1.072,0.39-1.729
			c0.108-0.656,0.166-1.256,0.174-1.8h-6.468v-1.128h7.848c-0.008,0.704-0.07,1.508-0.186,2.412s-0.254,1.652-0.414,2.244h1.704
			v1.116H650.567z"/>
	</g>
	<g>
		<path d="M559.601,620.391c0.12,0.444,0.284,0.854,0.492,1.23c0.256,0.439,0.566,0.834,0.93,1.182
			c0.364,0.349,0.774,0.662,1.23,0.942c-0.184,0.152-0.364,0.306-0.54,0.462c-0.176,0.156-0.32,0.294-0.432,0.414
			c-0.208-0.136-0.43-0.306-0.666-0.51c-0.236-0.204-0.471-0.431-0.702-0.679c-0.24-0.256-0.458-0.53-0.654-0.822
			c-0.196-0.292-0.362-0.586-0.498-0.882c-0.08,0.272-0.214,0.558-0.402,0.858s-0.398,0.59-0.63,0.87
			c-0.24,0.288-0.494,0.554-0.762,0.798c-0.268,0.244-0.518,0.446-0.75,0.606c-0.128-0.12-0.294-0.26-0.498-0.42
			c-0.204-0.16-0.402-0.304-0.594-0.432c0.496-0.304,0.935-0.647,1.32-1.032c0.384-0.384,0.7-0.808,0.948-1.272
			c0.225-0.416,0.393-0.862,0.504-1.338c0.112-0.477,0.168-0.982,0.168-1.519v-2.292h1.356v2.364
			C559.421,619.457,559.48,619.947,559.601,620.391z M563.321,626.841v-6.408h-2.256v-1.2h2.256v-3.108h1.296v10.716H563.321z"/>
		<path d="M571.411,623.981c-0.232,0.056-0.622,0.11-1.17,0.162c-0.548,0.052-1.038,0.082-1.47,0.09
			c-0.152,0.008-0.48,0.012-0.984,0.012c-0.504,0-0.76,0-0.768,0v-7.428h3.78v1.104h-2.52v5.172l1.056-0.012
			c0.352-0.008,0.744-0.039,1.176-0.096c0.432-0.056,0.732-0.1,0.9-0.132V623.981z M574.267,626.825v-5.82h-1.164v5.328h-1.236
			v-10.032h1.236v3.408h1.164v-3.6h1.236v10.716H574.267z"/>
		<path d="M582.834,622.486v2.136h-1.32v-2.136h-4.524v-1.116h10.008v1.116H582.834z M578.214,620.327v-3.936h7.548v3.936H578.214z
			 M578.25,626.639v-3.264h1.32v2.136h6.528v1.128H578.25z M584.502,617.507h-5.016v1.704h5.016V617.507z"/>
		<path d="M593.367,622.225v4.608h-1.32v-4.608h-4.272v-1.116h6.984c0.152-0.496,0.282-1.072,0.39-1.729
			c0.108-0.656,0.166-1.256,0.174-1.8h-6.468v-1.128h7.848c-0.008,0.704-0.07,1.508-0.186,2.412s-0.254,1.652-0.414,2.244h1.704
			v1.116H593.367z"/>
	</g>
	<g>
		<path d="M549.078,667.273v-7.476h5.076v7.476H549.078z M552.882,660.901h-2.519v5.232h2.519V660.901z M557.106,664.201v5.64
			h-1.284v-10.716h1.284v3.888h1.488v1.189H557.106z"/>
		<path d="M559.175,668.63v-1.128h4.344v-2.28h-3.516v-1.128h1.452l-0.036-3.372h-1.176v-1.128h7.872v1.128h-1.2l-0.036,3.372h1.476
			v1.128h-3.504v2.28h4.356v1.128H559.175z M562.763,664.094h2.844l0.036-3.372h-2.928L562.763,664.094z"/>
		<path d="M575.567,665.225v4.608h-1.32v-4.608h-4.272v-1.116h6.984c0.151-0.496,0.282-1.072,0.39-1.729
			c0.108-0.656,0.166-1.256,0.174-1.8h-6.468v-1.128h7.848c-0.008,0.704-0.07,1.508-0.186,2.412s-0.254,1.652-0.414,2.244h1.704
			v1.116H575.567z"/>
	</g>
	<g>
		<path d="M424.254,637.554c-0.016,0.704-0.14,1.354-0.372,1.95c-0.232,0.596-0.54,1.13-0.924,1.602
			c-0.44,0.536-0.964,0.996-1.572,1.38c-0.608,0.384-1.268,0.688-1.98,0.912c-0.056-0.088-0.168-0.23-0.336-0.426
			c-0.168-0.196-0.332-0.366-0.492-0.51c0.544-0.144,1.078-0.346,1.602-0.606c0.524-0.26,0.986-0.582,1.386-0.966
			c0.32-0.296,0.588-0.628,0.804-0.996c0.216-0.368,0.352-0.772,0.408-1.212h-3.612v-1.128H424.254z M420.942,647.447
			c-0.712-0.388-1.068-0.946-1.068-1.674c0-0.712,0.364-1.264,1.092-1.656c0.728-0.392,1.628-0.588,2.7-0.588
			c1.104,0,2.022,0.194,2.754,0.582c0.732,0.388,1.099,0.942,1.099,1.662c0,0.728-0.364,1.286-1.092,1.674
			c-0.728,0.388-1.648,0.582-2.76,0.582C422.562,648.029,421.654,647.835,420.942,647.447z M421.932,646.662
			c0.452,0.224,1.034,0.336,1.746,0.336c0.736,0,1.328-0.108,1.776-0.324c0.448-0.217,0.672-0.509,0.672-0.876
			c0-0.376-0.224-0.674-0.672-0.894c-0.448-0.22-1.04-0.33-1.776-0.33c-0.72,0-1.304,0.107-1.752,0.318s-0.672,0.506-0.672,0.882
			C421.254,646.142,421.48,646.438,421.932,646.662z M427.266,640.685v2.76h-1.284v-6.336h1.284v2.46h1.416v1.116H427.266z"/>
		<path d="M433.401,641.391c0.12,0.444,0.284,0.854,0.492,1.23c0.256,0.439,0.566,0.834,0.93,1.182
			c0.364,0.349,0.774,0.662,1.23,0.942c-0.184,0.152-0.364,0.306-0.54,0.462c-0.176,0.156-0.32,0.294-0.432,0.414
			c-0.208-0.136-0.43-0.306-0.666-0.51c-0.236-0.204-0.47-0.431-0.702-0.679c-0.24-0.256-0.458-0.53-0.654-0.822
			c-0.196-0.292-0.362-0.586-0.498-0.882c-0.08,0.272-0.214,0.558-0.402,0.858c-0.188,0.3-0.398,0.59-0.63,0.87
			c-0.24,0.288-0.494,0.554-0.762,0.798c-0.268,0.244-0.518,0.446-0.75,0.606c-0.128-0.12-0.294-0.26-0.498-0.42
			c-0.204-0.16-0.402-0.304-0.594-0.432c0.496-0.304,0.936-0.647,1.32-1.032c0.384-0.384,0.7-0.808,0.948-1.272
			c0.224-0.416,0.392-0.862,0.504-1.338c0.112-0.477,0.168-0.982,0.168-1.519v-2.292h1.356v2.364
			C433.221,640.457,433.281,640.947,433.401,641.391z M437.121,647.841v-6.408h-2.256v-1.2h2.256v-3.108h1.296v10.716H437.121z"/>
		<path d="M445.567,643.225v4.608h-1.32v-4.608h-4.272v-1.116h6.984c0.151-0.496,0.282-1.072,0.39-1.729
			c0.108-0.656,0.166-1.256,0.174-1.8h-6.468v-1.128h7.848c-0.008,0.704-0.07,1.508-0.186,2.412s-0.254,1.652-0.414,2.244h1.704
			v1.116H445.567z"/>
	</g>
	<g>
		<path d="M465.407,713.043c0.532-0.54,1.214-0.81,2.046-0.81c0.824,0,1.502,0.27,2.034,0.81c0.532,0.54,0.798,1.182,0.798,1.926
			c0,0.744-0.266,1.384-0.798,1.92c-0.532,0.536-1.21,0.804-2.034,0.804c-0.832,0-1.514-0.268-2.046-0.804
			c-0.532-0.536-0.798-1.176-0.798-1.92C464.609,714.225,464.875,713.583,465.407,713.043z M466.721,719.241
			c0.664-0.424,1.616-0.636,2.856-0.636c1.248,0,2.2,0.21,2.856,0.63c0.656,0.42,0.984,0.946,0.984,1.578
			c0,0.624-0.328,1.146-0.984,1.566c-0.656,0.42-1.608,0.63-2.856,0.63c-1.24,0-2.192-0.208-2.856-0.624
			c-0.664-0.416-0.996-0.936-0.996-1.56C465.726,720.193,466.057,719.665,466.721,719.241z M468.587,716.109
			c0.269-0.32,0.402-0.7,0.402-1.14c0-0.439-0.134-0.818-0.402-1.134c-0.268-0.316-0.645-0.474-1.134-0.474
			c-0.479,0-0.858,0.158-1.134,0.474c-0.276,0.316-0.414,0.694-0.414,1.134c0,0.44,0.138,0.82,0.414,1.14
			c0.276,0.32,0.654,0.48,1.134,0.48C467.941,716.589,468.319,716.429,468.587,716.109z M467.825,721.665
			c0.448,0.224,1.036,0.336,1.764,0.336c0.728,0,1.312-0.11,1.752-0.33c0.44-0.22,0.66-0.502,0.66-0.846
			c0-0.368-0.218-0.658-0.654-0.87c-0.436-0.212-1.022-0.318-1.758-0.318c-0.728,0-1.316,0.107-1.764,0.318
			c-0.448,0.212-0.672,0.498-0.672,0.858C467.153,721.157,467.377,721.44,467.825,721.665z M473.142,716.721v1.848h-1.284v-6.444
			h1.284v1.032h1.439v1.116h-1.439v1.32h1.439v1.128H473.142z"/>
		<path d="M480.333,716.656c0.572,0.532,1.162,0.882,1.771,1.05c-0.152,0.168-0.294,0.332-0.426,0.492
			c-0.132,0.16-0.254,0.32-0.366,0.48c-0.488-0.184-0.97-0.474-1.446-0.87s-0.854-0.814-1.134-1.254
			c-0.224,0.48-0.598,0.956-1.122,1.428c-0.524,0.472-1.034,0.804-1.53,0.996c-0.136-0.16-0.28-0.318-0.432-0.474
			c-0.152-0.156-0.32-0.31-0.504-0.462c0.712-0.24,1.356-0.638,1.932-1.194c0.576-0.556,0.888-1.222,0.936-1.998H475.9v-1.056h5.568
			v1.056h-2.064C479.452,715.523,479.762,716.124,480.333,716.656z M477.076,713.086v-1.008h3.264v1.008H477.076z M477.304,722.638
			v-3.288h1.296v2.16h6.228v1.128H477.304z M483.316,720.058v-3.612h-1.848v-1.116h1.848v-3.204h1.272v7.932H483.316z"/>
		<path d="M491.567,718.225v4.608h-1.32v-4.608h-4.272v-1.116h6.984c0.151-0.496,0.282-1.072,0.39-1.729
			c0.108-0.656,0.166-1.256,0.174-1.8h-6.468v-1.128h7.848c-0.008,0.704-0.07,1.508-0.186,2.412s-0.254,1.652-0.414,2.244h1.704
			v1.116H491.567z"/>
	</g>
	<g>
		<path d="M445.967,762.225v4.608h-1.32v-4.608h-4.272v-1.116h6.984c0.152-0.496,0.282-1.072,0.39-1.729
			c0.107-0.656,0.166-1.256,0.174-1.8h-6.468v-1.128h7.848c-0.008,0.704-0.07,1.508-0.186,2.412
			c-0.116,0.904-0.254,1.652-0.414,2.244h1.704v1.116H445.967z"/>
		<path d="M451.19,765.658v-1.116h4.296v-1.68h-2.988v-3.696h6.084v-1.488h-6.096v-1.116h7.356v3.708h-6.084v1.476h6.348v1.116
			h-3.264v1.68h4.368v1.116H451.19z"/>
		<path d="M467.567,762.225v4.608h-1.32v-4.608h-4.272v-1.116h6.984c0.151-0.496,0.282-1.072,0.39-1.729
			c0.108-0.656,0.166-1.256,0.174-1.8h-6.468v-1.128h7.848c-0.008,0.704-0.07,1.508-0.186,2.412s-0.254,1.652-0.414,2.244h1.704
			v1.116H467.567z"/>
	</g>
	<g>
		<path d="M538.227,707.557v-1.86h-2.388c-0.248,0.32-0.57,0.582-0.966,0.786c-0.396,0.204-0.83,0.306-1.302,0.306
			c-0.84,0-1.528-0.276-2.065-0.828c-0.536-0.552-0.804-1.204-0.804-1.956c0-0.76,0.268-1.414,0.804-1.962
			c0.536-0.548,1.224-0.822,2.065-0.822c0.448,0,0.864,0.09,1.248,0.271c0.384,0.18,0.695,0.422,0.936,0.726h2.472v-1.092h1.308
			v6.432H538.227z M532.941,708.241c0.66-0.424,1.626-0.636,2.897-0.636c1.28,0,2.246,0.214,2.898,0.642
			c0.651,0.428,0.977,0.95,0.977,1.566c0,0.632-0.326,1.156-0.977,1.572c-0.652,0.416-1.618,0.624-2.898,0.624
			c-1.271,0-2.238-0.21-2.897-0.63c-0.66-0.42-0.99-0.942-0.99-1.566C531.951,709.189,532.281,708.665,532.941,708.241z
			 M532.431,705.169c0.272,0.336,0.652,0.504,1.14,0.504c0.488,0,0.866-0.168,1.134-0.504c0.268-0.336,0.402-0.724,0.402-1.164
			c0-0.44-0.134-0.826-0.402-1.158c-0.268-0.332-0.646-0.498-1.134-0.498c-0.488,0-0.868,0.166-1.14,0.498
			c-0.272,0.332-0.408,0.718-0.408,1.158C532.023,704.445,532.159,704.833,532.431,705.169z M534.045,710.653
			c0.444,0.216,1.046,0.324,1.806,0.324c0.744,0,1.34-0.106,1.788-0.317c0.448-0.212,0.672-0.49,0.672-0.834
			c0-0.36-0.224-0.644-0.672-0.852c-0.448-0.208-1.044-0.312-1.788-0.312c-0.76,0-1.362,0.1-1.806,0.3
			c-0.444,0.2-0.666,0.484-0.666,0.852C533.379,710.157,533.601,710.437,534.045,710.653z M538.227,703.345h-1.896
			c0.024,0.096,0.046,0.204,0.066,0.324c0.02,0.12,0.03,0.232,0.03,0.336c0,0.088-0.008,0.182-0.023,0.282
			c-0.017,0.1-0.032,0.194-0.048,0.282h1.872V703.345z"/>
		<path d="M541.19,707.055v-1.104h10.008v1.104H541.19z M543.218,711.44c-0.688-0.404-1.032-0.906-1.032-1.506
			c0-0.608,0.344-1.11,1.032-1.506c0.688-0.396,1.676-0.594,2.964-0.594c1.304,0,2.296,0.198,2.976,0.594
			c0.68,0.396,1.02,0.898,1.02,1.506c0,0.6-0.34,1.102-1.02,1.506c-0.68,0.404-1.672,0.607-2.976,0.607
			C544.894,712.047,543.906,711.845,543.218,711.44z M542.451,704.99v-3.6h7.488v1.116h-6.18v1.38h6.288v1.104H542.451z
			 M544.346,710.727c0.44,0.192,1.052,0.288,1.836,0.288c0.768,0,1.378-0.094,1.83-0.282c0.452-0.188,0.678-0.45,0.678-0.786
			c0-0.352-0.226-0.625-0.678-0.821c-0.452-0.196-1.062-0.294-1.83-0.294c-0.784,0-1.397,0.094-1.836,0.282
			c-0.44,0.188-0.66,0.458-0.66,0.811C543.687,710.267,543.906,710.534,544.346,710.727z"/>
		<path d="M551.975,710.63v-1.128h4.344v-2.28h-3.516v-1.128h1.452l-0.036-3.372h-1.176v-1.128h7.872v1.128h-1.2l-0.036,3.372h1.476
			v1.128h-3.504v2.28h4.356v1.128H551.975z M555.562,706.094h2.844l0.036-3.372h-2.928L555.562,706.094z"/>
		<path d="M568.367,707.225v4.608h-1.32v-4.608h-4.272v-1.116h6.984c0.152-0.496,0.282-1.072,0.39-1.729
			c0.108-0.656,0.166-1.256,0.174-1.8h-6.468v-1.128h7.848c-0.008,0.704-0.07,1.508-0.186,2.412s-0.254,1.652-0.414,2.244h1.704
			v1.116H568.367z"/>
	</g>
	<g>
		<path d="M624.391,693.274v-1.128h2.604v-1.428c-0.496-0.183-0.878-0.42-1.146-0.708c-0.268-0.288-0.402-0.608-0.402-0.96
			c0-0.56,0.358-1.034,1.074-1.422c0.716-0.388,1.67-0.582,2.862-0.582c1.216,0,2.178,0.194,2.886,0.582
			c0.708,0.388,1.062,0.87,1.062,1.446c0,0.352-0.13,0.669-0.39,0.948c-0.26,0.28-0.638,0.512-1.134,0.696v1.428h2.592v1.128
			H624.391z M626.4,694.559c0.684-0.376,1.674-0.563,2.97-0.563c1.312,0,2.31,0.192,2.994,0.576
			c0.684,0.384,1.026,0.868,1.026,1.452c0,0.56-0.34,1.036-1.02,1.429c-0.68,0.392-1.676,0.588-2.988,0.588
			c-1.296,0-2.288-0.196-2.977-0.588c-0.688-0.393-1.032-0.873-1.032-1.441C625.375,695.419,625.716,694.935,626.4,694.559z
			 M627.546,696.767c0.448,0.184,1.06,0.276,1.836,0.276c0.76,0,1.368-0.092,1.824-0.276c0.456-0.184,0.684-0.432,0.684-0.744
			c0-0.328-0.228-0.583-0.684-0.768c-0.456-0.184-1.064-0.276-1.824-0.276c-0.776,0-1.389,0.09-1.836,0.271
			c-0.448,0.18-0.672,0.434-0.672,0.762C626.875,696.331,627.099,696.583,627.546,696.767z M627.589,689.783
			c0.452,0.191,1.05,0.288,1.794,0.288c0.735,0,1.334-0.09,1.794-0.27c0.46-0.18,0.69-0.426,0.69-0.738
			c0-0.312-0.236-0.562-0.708-0.75c-0.472-0.188-1.064-0.282-1.776-0.282c-0.729,0-1.322,0.092-1.782,0.276
			c-0.46,0.185-0.69,0.428-0.69,0.733C626.911,689.343,627.137,689.591,627.589,689.783z M630.511,690.995
			c-0.168,0.032-0.35,0.054-0.546,0.065c-0.196,0.013-0.391,0.019-0.582,0.019c-0.192,0-0.382-0.006-0.57-0.019
			c-0.188-0.012-0.362-0.03-0.522-0.054v1.14h2.22V690.995z"/>
		<path d="M639.25,689.891c0.148,0.349,0.342,0.666,0.582,0.954c0.256,0.296,0.546,0.556,0.87,0.78
			c0.324,0.224,0.654,0.396,0.99,0.516c-0.128,0.152-0.274,0.318-0.438,0.498c-0.164,0.181-0.294,0.338-0.39,0.474
			c-0.208-0.096-0.428-0.218-0.66-0.366c-0.232-0.148-0.456-0.31-0.672-0.486c-0.24-0.2-0.464-0.414-0.672-0.642
			c-0.208-0.228-0.38-0.466-0.516-0.714c-0.08,0.24-0.214,0.484-0.402,0.732c-0.188,0.248-0.398,0.484-0.63,0.708
			c-0.232,0.216-0.474,0.416-0.726,0.601c-0.252,0.184-0.494,0.336-0.726,0.456c-0.112-0.112-0.268-0.252-0.468-0.42
			c-0.2-0.168-0.392-0.32-0.576-0.456c0.4-0.184,0.78-0.408,1.14-0.672c0.36-0.264,0.668-0.563,0.924-0.899
			c0.232-0.304,0.42-0.632,0.564-0.984c0.144-0.352,0.216-0.736,0.216-1.152v-1.464h1.368v1.44
			C639.028,689.177,639.102,689.543,639.25,689.891z M636.892,697.637v-3.396h1.332v2.268h6.072v1.128H636.892z M643.948,687.125
			v3.072h1.416v1.116h-1.416v3.684h-1.284v-7.872H643.948z"/>
		<path d="M651.567,693.225v4.608h-1.32v-4.608h-4.272v-1.116h6.984c0.151-0.496,0.282-1.072,0.39-1.729
			c0.108-0.656,0.166-1.256,0.174-1.8h-6.468v-1.128h7.848c-0.008,0.704-0.07,1.508-0.186,2.412s-0.254,1.652-0.414,2.244h1.704
			v1.116H651.567z"/>
	</g>
	<g>
		<path d="M655.079,647.851v1.104c1.08,0.072,1.9,0.293,2.46,0.66c0.56,0.368,0.84,0.82,0.84,1.356c0,0.584-0.34,1.074-1.021,1.47
			c-0.68,0.396-1.672,0.594-2.976,0.594c-1.288,0-2.278-0.198-2.97-0.594c-0.692-0.396-1.038-0.886-1.038-1.47
			c0-0.536,0.284-0.988,0.852-1.356c0.568-0.368,1.384-0.588,2.448-0.66v-1.092h-4.284v-1.116h10.008v1.116L655.079,647.851z
			 M655.792,644.137c0.26,0.18,0.562,0.338,0.906,0.474c0.353,0.137,0.72,0.246,1.104,0.33c0.384,0.084,0.756,0.146,1.116,0.187
			c-0.12,0.16-0.24,0.328-0.36,0.504c-0.12,0.176-0.228,0.336-0.324,0.479c-0.336-0.048-0.692-0.114-1.068-0.198
			c-0.376-0.084-0.744-0.198-1.104-0.342c-0.344-0.136-0.664-0.298-0.96-0.485c-0.296-0.189-0.536-0.406-0.72-0.654
			c-0.168,0.216-0.386,0.414-0.654,0.594c-0.268,0.181-0.566,0.342-0.894,0.486c-0.336,0.144-0.698,0.266-1.086,0.366
			c-0.388,0.1-0.79,0.178-1.206,0.233c-0.08-0.136-0.186-0.294-0.318-0.474c-0.132-0.18-0.266-0.358-0.402-0.534
			c0.416-0.04,0.826-0.104,1.23-0.192c0.404-0.088,0.778-0.2,1.122-0.336c0.328-0.136,0.618-0.292,0.87-0.468
			c0.252-0.176,0.43-0.38,0.534-0.612h-3.024v-1.104h7.68v1.104h-3.036C655.334,643.743,655.532,643.957,655.792,644.137z
			 M652.54,651.727c0.452,0.184,1.066,0.276,1.842,0.276c0.768,0,1.38-0.09,1.836-0.271c0.456-0.18,0.683-0.43,0.683-0.75
			c0-0.344-0.227-0.607-0.683-0.792c-0.456-0.184-1.068-0.276-1.836-0.276c-0.776,0-1.391,0.09-1.842,0.27
			c-0.452,0.18-0.678,0.438-0.678,0.774C651.862,651.287,652.088,651.542,652.54,651.727z"/>
		<path d="M665.767,648.225v4.608h-1.32v-4.608h-4.272v-1.116h6.984c0.152-0.496,0.282-1.072,0.39-1.729
			c0.108-0.656,0.166-1.256,0.174-1.8h-6.468v-1.128h7.848c-0.008,0.704-0.07,1.508-0.186,2.412
			c-0.116,0.904-0.254,1.652-0.414,2.244h1.704v1.116H665.767z"/>
	</g>
	<g>
		<path d="M714.391,613.247v-1.128h4.332v-1.213h-3.072v-3.516h7.5v1.104h-6.192v1.308h6.3v1.103h-3.204v1.213h4.344v1.128H714.391z
			 M716.419,617.44c-0.688-0.404-1.032-0.898-1.032-1.482c0-0.592,0.344-1.083,1.032-1.476c0.688-0.392,1.676-0.588,2.964-0.588
			c1.304,0,2.296,0.196,2.976,0.588c0.68,0.393,1.021,0.884,1.021,1.476c0,0.584-0.34,1.078-1.021,1.482
			c-0.68,0.404-1.672,0.607-2.976,0.607C718.095,618.047,717.106,617.845,716.419,617.44z M717.553,616.721
			c0.443,0.188,1.054,0.282,1.83,0.282c0.768,0,1.376-0.092,1.824-0.276c0.448-0.184,0.672-0.436,0.672-0.756
			c0-0.344-0.225-0.61-0.672-0.798c-0.448-0.188-1.056-0.282-1.824-0.282c-0.776,0-1.387,0.09-1.83,0.27
			c-0.444,0.18-0.666,0.442-0.666,0.786C716.887,616.274,717.108,616.532,717.553,616.721z"/>
		<path d="M730.411,614.981c-0.232,0.056-0.622,0.11-1.17,0.162c-0.548,0.052-1.038,0.082-1.47,0.09
			c-0.152,0.008-0.48,0.012-0.984,0.012c-0.504,0-0.76,0-0.768,0v-7.428h3.78v1.104h-2.52v5.172l1.056-0.012
			c0.352-0.008,0.744-0.039,1.176-0.096c0.432-0.056,0.732-0.1,0.9-0.132V614.981z M733.267,617.825v-5.82h-1.164v5.328h-1.236
			v-10.032h1.236v3.408h1.164v-3.6h1.236v10.716H733.267z"/>
		<path d="M741.834,613.486v2.136h-1.32v-2.136h-4.524v-1.116h10.008v1.116H741.834z M737.214,611.327v-3.936h7.548v3.936H737.214z
			 M737.25,617.639v-3.264h1.32v2.136h6.528v1.128H737.25z M743.502,608.507h-5.016v1.704h5.016V608.507z"/>
		<path d="M752.367,613.225v4.608h-1.32v-4.608h-4.272v-1.116h6.984c0.152-0.496,0.282-1.072,0.39-1.729
			c0.108-0.656,0.166-1.256,0.174-1.8h-6.468v-1.128h7.848c-0.008,0.704-0.07,1.508-0.186,2.412s-0.254,1.652-0.414,2.244h1.704
			v1.116H752.367z"/>
	</g>
	<g>
		<path d="M780.079,582.851v1.104c1.08,0.072,1.9,0.293,2.46,0.66c0.56,0.368,0.84,0.82,0.84,1.356c0,0.584-0.34,1.074-1.021,1.47
			c-0.68,0.396-1.672,0.594-2.976,0.594c-1.288,0-2.278-0.198-2.97-0.594c-0.692-0.396-1.038-0.886-1.038-1.47
			c0-0.536,0.284-0.988,0.852-1.356c0.568-0.368,1.384-0.588,2.448-0.66v-1.092h-4.284v-1.116h10.008v1.116L780.079,582.851z
			 M780.792,579.137c0.26,0.18,0.562,0.338,0.906,0.474c0.353,0.137,0.72,0.246,1.104,0.33c0.384,0.084,0.756,0.146,1.116,0.187
			c-0.12,0.16-0.24,0.328-0.36,0.504c-0.12,0.176-0.228,0.336-0.324,0.479c-0.336-0.048-0.692-0.114-1.068-0.198
			c-0.376-0.084-0.744-0.198-1.104-0.342c-0.344-0.136-0.664-0.298-0.96-0.485c-0.296-0.189-0.536-0.406-0.72-0.654
			c-0.168,0.216-0.386,0.414-0.654,0.594c-0.268,0.181-0.566,0.342-0.894,0.486c-0.336,0.144-0.698,0.266-1.086,0.366
			c-0.388,0.1-0.79,0.178-1.206,0.233c-0.08-0.136-0.186-0.294-0.318-0.474c-0.132-0.18-0.266-0.358-0.402-0.534
			c0.416-0.04,0.826-0.104,1.23-0.192c0.404-0.088,0.778-0.2,1.122-0.336c0.328-0.136,0.618-0.292,0.87-0.468
			c0.252-0.176,0.43-0.38,0.534-0.612h-3.024v-1.104h7.68v1.104h-3.036C780.334,578.743,780.532,578.957,780.792,579.137z
			 M777.54,586.727c0.452,0.184,1.066,0.276,1.842,0.276c0.768,0,1.38-0.09,1.836-0.271c0.456-0.18,0.683-0.43,0.683-0.75
			c0-0.344-0.227-0.607-0.683-0.792c-0.456-0.184-1.068-0.276-1.836-0.276c-0.776,0-1.391,0.09-1.842,0.27
			c-0.452,0.18-0.678,0.438-0.678,0.774C776.862,586.287,777.088,586.543,777.54,586.727z"/>
		<path d="M792.18,582.821c-0.392,0.057-1.012,0.12-1.86,0.192c-0.848,0.072-1.62,0.116-2.316,0.132
			c-0.168,0-0.576,0.002-1.224,0.006c-0.648,0.004-0.98,0.006-0.996,0.006v-3.384h3.78v-1.188h-3.78v-1.104h5.052v3.348h-3.78v1.225
			l1.404-0.024c0.488-0.008,1.132-0.044,1.932-0.107c0.8-0.065,1.396-0.124,1.788-0.181V582.821z M787.524,584.466
			c0.656-0.384,1.612-0.576,2.868-0.576c1.264,0,2.22,0.192,2.868,0.576c0.648,0.384,0.972,0.88,0.972,1.487
			c0,0.601-0.324,1.094-0.972,1.482c-0.648,0.388-1.604,0.582-2.868,0.582c-1.256,0-2.212-0.194-2.868-0.582
			c-0.656-0.388-0.984-0.882-0.984-1.482C786.54,585.346,786.868,584.85,787.524,584.466z M788.604,586.739
			c0.448,0.18,1.044,0.271,1.788,0.271c0.744,0,1.334-0.09,1.77-0.271c0.436-0.18,0.654-0.442,0.654-0.786
			c0-0.352-0.218-0.615-0.654-0.792c-0.436-0.176-1.026-0.264-1.77-0.264c-0.744,0-1.34,0.09-1.788,0.27
			c-0.448,0.18-0.672,0.442-0.672,0.786C787.933,586.297,788.156,586.56,788.604,586.739z M793.992,577.109v2.352h1.416v1.128
			h-1.416v3.24h-1.272v-6.72H793.992z"/>
		<path d="M801.567,583.225v4.608h-1.32v-4.608h-4.272v-1.116h6.984c0.151-0.496,0.282-1.072,0.39-1.729
			c0.108-0.656,0.166-1.256,0.174-1.8h-6.468v-1.128h7.848c-0.008,0.704-0.07,1.508-0.186,2.412s-0.254,1.652-0.414,2.244h1.704
			v1.116H801.567z"/>
	</g>
	<g>
		<path d="M773.601,670.713c-0.48,0.072-1.274,0.148-2.382,0.228c-1.108,0.08-2.29,0.12-3.546,0.12h-1.188v-1.128h1.932v-2.04h1.272
			v2.028c0.376,0,0.996-0.03,1.86-0.09c0.864-0.06,1.548-0.13,2.052-0.21V670.713z M772.712,665.481
			c-0.016,0.688-0.062,1.357-0.138,2.004c-0.076,0.648-0.162,1.196-0.258,1.644h-1.296c0.072-0.376,0.134-0.79,0.186-1.242
			c0.052-0.452,0.09-0.878,0.114-1.278h-4.212v-1.128H772.712z M768.818,675.388c-0.66-0.42-0.99-0.93-0.99-1.53
			c0-0.608,0.33-1.118,0.99-1.53c0.66-0.412,1.61-0.618,2.85-0.618c1.24,0,2.192,0.206,2.856,0.618
			c0.664,0.412,0.996,0.922,0.996,1.53c0,0.6-0.332,1.11-0.996,1.53c-0.664,0.42-1.616,0.63-2.856,0.63
			C770.428,676.018,769.479,675.808,768.818,675.388z M769.893,674.667c0.472,0.211,1.064,0.318,1.776,0.318
			c0.72,0,1.31-0.104,1.77-0.312c0.46-0.208,0.69-0.48,0.69-0.816c0-0.344-0.23-0.622-0.69-0.834c-0.46-0.212-1.05-0.318-1.77-0.318
			c-0.704,0-1.294,0.104-1.77,0.312c-0.476,0.208-0.714,0.488-0.714,0.84C769.185,674.185,769.42,674.455,769.893,674.667z
			 M775.269,668.806v2.855h-1.284v-6.552h1.284v2.568h1.392v1.128H775.269z"/>
		<path d="M781.694,668.227c0.156,0.316,0.362,0.606,0.618,0.87c0.272,0.28,0.572,0.514,0.9,0.702
			c0.328,0.188,0.66,0.338,0.996,0.45c-0.152,0.152-0.312,0.318-0.48,0.498c-0.168,0.18-0.292,0.326-0.372,0.438
			c-0.176-0.064-0.398-0.176-0.666-0.336c-0.268-0.16-0.538-0.344-0.81-0.552c-0.216-0.168-0.418-0.354-0.606-0.558
			c-0.188-0.204-0.346-0.426-0.474-0.666c-0.112,0.24-0.254,0.468-0.426,0.684c-0.172,0.216-0.37,0.424-0.594,0.624
			c-0.256,0.224-0.53,0.43-0.822,0.618c-0.292,0.188-0.566,0.338-0.822,0.45c-0.104-0.104-0.252-0.24-0.444-0.408
			c-0.192-0.168-0.38-0.324-0.564-0.468c0.464-0.168,0.898-0.389,1.302-0.66c0.404-0.272,0.746-0.592,1.026-0.96
			c0.208-0.272,0.368-0.554,0.48-0.846c0.112-0.292,0.168-0.61,0.168-0.954v-0.456h-2.088v-1.116h5.532v1.116h-2.088v0.492
			C781.46,667.565,781.538,667.911,781.694,668.227z M779.324,675.637v-3.432h1.308v2.304h6.192v1.128H779.324z M785.276,673.033
			v-7.908h1.284v7.908H785.276z"/>
		<path d="M793.567,671.225v4.608h-1.32v-4.608h-4.272v-1.116h6.984c0.151-0.496,0.282-1.072,0.39-1.729
			c0.108-0.656,0.166-1.256,0.174-1.8h-6.468v-1.128h7.848c-0.008,0.704-0.07,1.508-0.186,2.412s-0.254,1.652-0.414,2.244h1.704
			v1.116H793.567z"/>
	</g>
	<g>
		<path d="M710.649,660.663c0.156,0.348,0.358,0.666,0.606,0.954c0.248,0.28,0.53,0.523,0.846,0.731
			c0.316,0.208,0.646,0.372,0.99,0.492c-0.128,0.12-0.274,0.282-0.438,0.486c-0.164,0.204-0.298,0.366-0.402,0.486
			c-0.2-0.096-0.408-0.21-0.624-0.342c-0.216-0.132-0.432-0.282-0.648-0.45c-0.248-0.192-0.482-0.404-0.702-0.636
			c-0.22-0.232-0.406-0.476-0.558-0.732c-0.08,0.232-0.208,0.468-0.384,0.708c-0.176,0.24-0.38,0.468-0.612,0.684
			c-0.224,0.216-0.468,0.416-0.732,0.6c-0.265,0.184-0.512,0.332-0.744,0.444c-0.12-0.112-0.28-0.254-0.48-0.426
			c-0.2-0.172-0.388-0.318-0.564-0.438c0.392-0.184,0.762-0.398,1.11-0.642c0.348-0.244,0.654-0.526,0.918-0.846
			c0.248-0.304,0.444-0.636,0.588-0.996c0.144-0.36,0.216-0.752,0.216-1.176v-1.212h1.38v1.2
			C710.415,659.945,710.493,660.315,710.649,660.663z M709.131,665.235c0.696-0.42,1.64-0.63,2.832-0.63
			c1.2,0,2.146,0.208,2.838,0.624c0.692,0.416,1.038,0.948,1.038,1.596c0,0.632-0.344,1.156-1.032,1.572
			c-0.688,0.416-1.636,0.624-2.844,0.624c-1.192,0-2.136-0.206-2.832-0.618c-0.696-0.413-1.044-0.939-1.044-1.578
			C708.087,666.185,708.435,665.655,709.131,665.235z M710.235,667.665c0.479,0.224,1.059,0.336,1.74,0.336
			c0.696,0,1.284-0.104,1.764-0.312c0.479-0.208,0.72-0.492,0.72-0.852c0-0.376-0.238-0.67-0.714-0.882
			c-0.477-0.212-1.066-0.318-1.77-0.318c-0.68,0-1.26,0.101-1.74,0.3c-0.481,0.2-0.72,0.488-0.72,0.864
			C709.515,667.153,709.755,667.44,710.235,667.665z M714.327,664.545v-3.408h-2.196v-1.152h2.196v-1.86h1.284v6.42H714.327z"/>
		<path d="M717.19,664.247v-1.128h4.332v-1.213h-3.072v-3.516h7.5v1.104h-6.192v1.308h6.3v1.103h-3.204v1.213h4.344v1.128H717.19z
			 M719.218,668.44c-0.688-0.404-1.032-0.898-1.032-1.482c0-0.592,0.344-1.083,1.032-1.476c0.688-0.392,1.676-0.588,2.964-0.588
			c1.304,0,2.296,0.196,2.976,0.588c0.68,0.393,1.02,0.884,1.02,1.476c0,0.584-0.34,1.078-1.02,1.482
			c-0.68,0.404-1.672,0.607-2.976,0.607C720.894,669.047,719.906,668.845,719.218,668.44z M720.352,667.721
			c0.444,0.188,1.054,0.282,1.83,0.282c0.768,0,1.376-0.092,1.824-0.276c0.448-0.184,0.672-0.436,0.672-0.756
			c0-0.344-0.224-0.61-0.672-0.798c-0.448-0.188-1.056-0.282-1.824-0.282c-0.776,0-1.386,0.09-1.83,0.27
			c-0.444,0.18-0.666,0.442-0.666,0.786C719.686,667.274,719.908,667.532,720.352,667.721z"/>
		<path d="M733.567,664.225v4.608h-1.32v-4.608h-4.272v-1.116h6.984c0.151-0.496,0.282-1.072,0.39-1.729
			c0.108-0.656,0.166-1.256,0.174-1.8h-6.468v-1.128h7.848c-0.008,0.704-0.07,1.508-0.186,2.412s-0.254,1.652-0.414,2.244h1.704
			v1.116H733.567z"/>
	</g>
	<g>
		<path d="M849.254,650.554c-0.016,0.704-0.14,1.354-0.372,1.95c-0.231,0.596-0.54,1.13-0.924,1.602
			c-0.44,0.536-0.964,0.996-1.572,1.38c-0.607,0.384-1.268,0.688-1.979,0.912c-0.056-0.088-0.168-0.23-0.336-0.426
			c-0.168-0.196-0.332-0.366-0.492-0.51c0.544-0.144,1.078-0.346,1.602-0.606c0.524-0.26,0.986-0.582,1.386-0.966
			c0.319-0.296,0.588-0.628,0.804-0.996c0.216-0.368,0.352-0.772,0.408-1.212h-3.612v-1.128H849.254z M845.942,660.447
			c-0.712-0.388-1.068-0.946-1.068-1.674c0-0.712,0.364-1.264,1.092-1.656c0.729-0.392,1.628-0.588,2.7-0.588
			c1.104,0,2.022,0.194,2.754,0.582c0.732,0.388,1.099,0.942,1.099,1.662c0,0.728-0.364,1.286-1.092,1.674
			c-0.728,0.388-1.648,0.582-2.76,0.582C847.562,661.029,846.654,660.835,845.942,660.447z M846.932,659.662
			c0.452,0.224,1.034,0.336,1.746,0.336c0.736,0,1.328-0.108,1.776-0.324c0.448-0.217,0.672-0.509,0.672-0.876
			c0-0.376-0.224-0.674-0.672-0.894c-0.448-0.22-1.04-0.33-1.776-0.33c-0.72,0-1.304,0.107-1.752,0.318
			c-0.448,0.212-0.672,0.506-0.672,0.882C846.254,659.142,846.48,659.438,846.932,659.662z M852.266,653.685v2.76h-1.284v-6.336
			h1.284v2.46h1.416v1.116H852.266z"/>
		<path d="M854.19,656.247v-1.128h4.332v-1.213h-3.072v-3.516h7.5v1.104h-6.192v1.308h6.3v1.103h-3.204v1.213h4.344v1.128H854.19z
			 M856.218,660.44c-0.688-0.404-1.032-0.898-1.032-1.482c0-0.592,0.344-1.083,1.032-1.476c0.688-0.392,1.676-0.588,2.964-0.588
			c1.304,0,2.296,0.196,2.976,0.588c0.68,0.393,1.02,0.884,1.02,1.476c0,0.584-0.34,1.078-1.02,1.482
			c-0.68,0.404-1.672,0.607-2.976,0.607C857.894,661.047,856.906,660.845,856.218,660.44z M857.352,659.721
			c0.444,0.188,1.054,0.282,1.83,0.282c0.768,0,1.376-0.092,1.824-0.276c0.448-0.184,0.672-0.436,0.672-0.756
			c0-0.344-0.224-0.61-0.672-0.798c-0.448-0.188-1.056-0.282-1.824-0.282c-0.776,0-1.386,0.09-1.83,0.27
			c-0.444,0.18-0.666,0.442-0.666,0.786C856.686,659.274,856.908,659.532,857.352,659.721z"/>
		<path d="M870.567,656.225v4.608h-1.32v-4.608h-4.272v-1.116h6.984c0.151-0.496,0.282-1.072,0.39-1.729
			c0.108-0.656,0.166-1.256,0.174-1.8h-6.468v-1.128h7.848c-0.008,0.704-0.07,1.508-0.186,2.412s-0.254,1.652-0.414,2.244h1.704
			v1.116H870.567z"/>
	</g>
	<g>
		<path d="M796.391,734.35v-1.128h4.332v-1.428h1.344v1.428h4.332v1.128H796.391z M802.48,729.531c0.244,0.3,0.55,0.562,0.918,0.786
			c0.392,0.24,0.82,0.439,1.284,0.594c0.464,0.156,0.892,0.266,1.284,0.33c-0.128,0.152-0.274,0.32-0.439,0.504
			c-0.164,0.184-0.29,0.332-0.378,0.444c-0.271-0.064-0.582-0.152-0.93-0.264c-0.349-0.112-0.698-0.252-1.05-0.42
			c-0.36-0.184-0.7-0.394-1.021-0.63c-0.32-0.236-0.568-0.498-0.744-0.786c-0.184,0.28-0.418,0.532-0.702,0.756
			c-0.284,0.224-0.59,0.42-0.918,0.588c-0.344,0.176-0.702,0.328-1.074,0.456c-0.372,0.128-0.734,0.228-1.085,0.3
			c-0.097-0.128-0.219-0.278-0.366-0.45c-0.148-0.172-0.294-0.338-0.438-0.498c0.496-0.096,0.979-0.222,1.446-0.378
			c0.468-0.156,0.886-0.35,1.254-0.582c0.352-0.216,0.634-0.47,0.846-0.762c0.212-0.292,0.318-0.622,0.318-0.99v-0.42h1.428v0.42
			C802.114,728.898,802.236,729.231,802.48,729.531z M798.376,738.454c-0.668-0.377-1.002-0.856-1.002-1.44
			c0-0.576,0.334-1.05,1.002-1.422c0.668-0.372,1.666-0.559,2.994-0.559c1.32,0,2.32,0.187,3,0.559
			c0.68,0.372,1.02,0.846,1.02,1.422c0,0.584-0.34,1.063-1.02,1.44c-0.68,0.375-1.676,0.564-2.988,0.564
			C800.047,739.018,799.044,738.829,798.376,738.454z M799.54,737.752c0.452,0.172,1.066,0.258,1.842,0.258
			c0.768,0,1.38-0.087,1.836-0.258c0.456-0.172,0.683-0.414,0.683-0.726c0-0.328-0.227-0.576-0.683-0.744
			c-0.456-0.168-1.068-0.252-1.836-0.252c-0.776,0-1.391,0.082-1.842,0.246c-0.452,0.164-0.678,0.41-0.678,0.738
			C798.862,737.333,799.088,737.579,799.54,737.752z"/>
		<path d="M814.227,735.961c-0.392,0.048-0.846,0.092-1.362,0.132c-0.516,0.04-0.982,0.064-1.398,0.072l-4.152,0.036v-1.128h1.248
			l-0.036-5.137h-0.972v-1.14h6.156v1.14h-1.02l-0.024,5.04c0.208-0.016,0.46-0.034,0.756-0.054c0.296-0.02,0.564-0.046,0.804-0.078
			V735.961z M809.835,735.073c0.344-0.008,0.626-0.013,0.846-0.013c0.22,0,0.45-0.004,0.69-0.012l0.048-5.112h-1.62L809.835,735.073
			z M815.991,732.841v6h-1.284v-10.716h1.284v3.528h1.488v1.188H815.991z"/>
		<path d="M823.567,734.225v4.608h-1.32v-4.608h-4.272v-1.116h6.984c0.151-0.496,0.282-1.072,0.39-1.729
			c0.108-0.656,0.166-1.256,0.174-1.8h-6.468v-1.128h7.848c-0.008,0.704-0.07,1.508-0.186,2.412s-0.254,1.652-0.414,2.244h1.704
			v1.116H823.567z"/>
	</g>
	<g>
		<path d="M732.254,749.554c-0.016,0.704-0.14,1.354-0.372,1.95c-0.231,0.596-0.54,1.13-0.924,1.602
			c-0.44,0.536-0.964,0.996-1.572,1.38c-0.607,0.384-1.268,0.688-1.979,0.912c-0.056-0.088-0.168-0.23-0.336-0.426
			c-0.168-0.196-0.332-0.366-0.492-0.51c0.544-0.144,1.078-0.346,1.602-0.606c0.524-0.26,0.986-0.582,1.386-0.966
			c0.319-0.296,0.588-0.628,0.804-0.996c0.216-0.368,0.352-0.772,0.408-1.212h-3.612v-1.128H732.254z M728.942,759.447
			c-0.712-0.388-1.068-0.946-1.068-1.674c0-0.712,0.364-1.264,1.092-1.656c0.728-0.392,1.628-0.588,2.7-0.588
			c1.104,0,2.022,0.194,2.754,0.582c0.732,0.388,1.099,0.942,1.099,1.662c0,0.728-0.364,1.286-1.092,1.674
			c-0.728,0.388-1.648,0.582-2.76,0.582C730.562,760.029,729.654,759.835,728.942,759.447z M729.932,758.662
			c0.452,0.224,1.034,0.336,1.746,0.336c0.736,0,1.328-0.108,1.776-0.324c0.448-0.217,0.672-0.509,0.672-0.876
			c0-0.376-0.224-0.674-0.672-0.894c-0.448-0.22-1.04-0.33-1.776-0.33c-0.72,0-1.304,0.107-1.752,0.318
			c-0.448,0.212-0.672,0.506-0.672,0.882C729.254,758.142,729.48,758.438,729.932,758.662z M735.266,752.685v2.76h-1.284v-6.336
			h1.284v2.46h1.416v1.116H735.266z"/>
		<path d="M744.25,753.649c-0.328,0.08-0.832,0.162-1.512,0.246c-0.68,0.084-1.416,0.134-2.208,0.15
			c-0.16,0-0.638,0.004-1.434,0.012c-0.796,0.008-1.202,0.012-1.218,0.012v-4.68h1.272v3.516l1.332-0.012
			c0.688-0.008,1.39-0.054,2.106-0.138c0.716-0.084,1.27-0.166,1.662-0.246V753.649z M738.946,759.721v-4.296h7.092v4.296H738.946z
			 M744.754,756.529h-4.524v2.112h4.524V756.529z M746.026,749.125v1.836h1.404v1.128h-1.404v2.88h-1.284v-5.844H746.026z"/>
		<path d="M753.567,755.225v4.608h-1.32v-4.608h-4.272v-1.116h6.984c0.151-0.496,0.282-1.072,0.39-1.729
			c0.108-0.656,0.166-1.256,0.174-1.8h-6.468v-1.128h7.848c-0.008,0.704-0.07,1.508-0.186,2.412s-0.254,1.652-0.414,2.244h1.704
			v1.116H753.567z"/>
	</g>
	<g>
		<path d="M667.601,770.391c0.12,0.444,0.284,0.854,0.492,1.23c0.256,0.439,0.566,0.834,0.93,1.182
			c0.364,0.349,0.774,0.662,1.23,0.942c-0.184,0.152-0.364,0.306-0.54,0.462c-0.176,0.156-0.32,0.294-0.432,0.414
			c-0.208-0.136-0.43-0.306-0.666-0.51c-0.236-0.204-0.471-0.431-0.702-0.679c-0.24-0.256-0.458-0.53-0.654-0.822
			c-0.196-0.292-0.362-0.586-0.498-0.882c-0.08,0.272-0.214,0.558-0.402,0.858s-0.398,0.59-0.63,0.87
			c-0.24,0.288-0.494,0.554-0.762,0.798c-0.268,0.244-0.518,0.446-0.75,0.606c-0.128-0.12-0.294-0.26-0.498-0.42
			c-0.204-0.16-0.402-0.304-0.594-0.432c0.496-0.304,0.935-0.647,1.32-1.032c0.384-0.384,0.7-0.808,0.948-1.272
			c0.225-0.416,0.393-0.862,0.504-1.338c0.112-0.477,0.168-0.982,0.168-1.519v-2.292h1.356v2.364
			C667.421,769.457,667.48,769.947,667.601,770.391z M671.321,776.841v-6.408h-2.256v-1.2h2.256v-3.108h1.296v10.716H671.321z"/>
		<path d="M674.175,775.673v-1.128h4.332v-2.052h1.356v2.052h4.344v1.128H674.175z M680.445,770.278
			c0.244,0.26,0.53,0.486,0.858,0.678c0.392,0.224,0.81,0.408,1.254,0.552c0.444,0.143,0.858,0.248,1.242,0.312
			c-0.152,0.176-0.31,0.358-0.474,0.546c-0.164,0.188-0.314,0.354-0.45,0.498c-0.304-0.064-0.632-0.155-0.984-0.275
			c-0.352-0.12-0.7-0.273-1.044-0.456c-0.336-0.176-0.65-0.38-0.942-0.612s-0.534-0.488-0.726-0.768
			c-0.16,0.24-0.37,0.468-0.63,0.684c-0.26,0.216-0.546,0.416-0.858,0.6c-0.336,0.185-0.692,0.349-1.068,0.492
			c-0.376,0.145-0.752,0.26-1.128,0.348c-0.128-0.152-0.266-0.32-0.414-0.504c-0.148-0.184-0.322-0.368-0.521-0.552
			c0.456-0.088,0.917-0.21,1.386-0.366c0.468-0.156,0.89-0.35,1.266-0.582c0.304-0.192,0.562-0.41,0.774-0.654
			c0.212-0.244,0.358-0.522,0.438-0.834h-3.228v-1.104h7.968v1.104h-3.216C680.035,769.721,680.201,770.019,680.445,770.278z
			 M676.983,767.393v-1.08h4.392v1.08H676.983z"/>
		<path d="M690.567,772.225v4.608h-1.32v-4.608h-4.272v-1.116h6.984c0.151-0.496,0.282-1.072,0.39-1.729
			c0.108-0.656,0.166-1.256,0.174-1.8h-6.468v-1.128h7.848c-0.008,0.704-0.07,1.508-0.186,2.412
			c-0.116,0.904-0.254,1.652-0.414,2.244h1.704v1.116H690.567z"/>
	</g>
	<g>
		<path d="M588.588,802.134c-0.496,0.072-1.258,0.147-2.286,0.228c-1.028,0.08-2.162,0.12-3.402,0.12h-1.416v-1.14h1.932v-2.292
			h1.272v2.292c0.376,0,0.998-0.03,1.866-0.09c0.868-0.06,1.546-0.13,2.034-0.21V802.134z M587.712,796.481
			c-0.008,0.68-0.06,1.386-0.156,2.118c-0.097,0.732-0.188,1.326-0.276,1.782h-1.296c0.088-0.4,0.16-0.852,0.216-1.356
			c0.056-0.504,0.1-0.976,0.132-1.416h-4.224v-1.128H587.712z M583.188,806.634v-3.42h1.296v2.292h6.096v1.128H583.188z
			 M590.256,800.453v3.636h-1.284v-7.98h1.284v3.204h1.416v1.14H590.256z"/>
		<path d="M593.256,797.091c0.544-0.548,1.232-0.822,2.065-0.822c0.848,0,1.542,0.274,2.081,0.822c0.54,0.548,0.81,1.202,0.81,1.962
			c0,0.76-0.27,1.412-0.81,1.956c-0.54,0.544-1.234,0.816-2.081,0.816c-0.832,0-1.521-0.272-2.065-0.816
			c-0.544-0.544-0.816-1.196-0.816-1.956C592.44,798.293,592.712,797.639,593.256,797.091z M599.688,806.889v-2.784h-6.024v-1.14
			h7.332v3.924H599.688z M596.491,800.223c0.276-0.332,0.414-0.718,0.414-1.158c0-0.448-0.138-0.836-0.414-1.164
			c-0.276-0.328-0.662-0.492-1.158-0.492c-0.496,0-0.884,0.164-1.164,0.492c-0.28,0.328-0.42,0.716-0.42,1.164
			c0,0.44,0.14,0.826,0.42,1.158c0.28,0.332,0.668,0.498,1.164,0.498C595.829,800.721,596.214,800.555,596.491,800.223z
			 M600.984,796.125v2.244h1.416v1.164h-1.416v2.964h-1.296v-6.372H600.984z"/>
		<path d="M608.567,802.225v4.608h-1.32v-4.608h-4.272v-1.116h6.984c0.151-0.496,0.282-1.072,0.39-1.729
			c0.108-0.656,0.166-1.256,0.174-1.8h-6.468v-1.128h7.848c-0.008,0.704-0.07,1.508-0.186,2.412
			c-0.116,0.904-0.254,1.652-0.414,2.244h1.704v1.116H608.567z"/>
	</g>
	<g>
		<path d="M592.391,742.247v-1.128h4.332v-1.213h-3.072v-3.516h7.5v1.104h-6.192v1.308h6.3v1.103h-3.204v1.213h4.344v1.128H592.391z
			 M594.419,746.44c-0.688-0.404-1.032-0.898-1.032-1.482c0-0.592,0.344-1.083,1.032-1.476c0.688-0.392,1.676-0.588,2.964-0.588
			c1.304,0,2.296,0.196,2.976,0.588c0.68,0.393,1.021,0.884,1.021,1.476c0,0.584-0.34,1.078-1.021,1.482
			c-0.68,0.404-1.672,0.607-2.976,0.607C596.095,747.047,595.106,746.845,594.419,746.44z M595.553,745.721
			c0.443,0.188,1.054,0.282,1.83,0.282c0.768,0,1.376-0.092,1.824-0.276c0.448-0.184,0.672-0.436,0.672-0.756
			c0-0.344-0.225-0.61-0.672-0.798c-0.448-0.188-1.056-0.282-1.824-0.282c-0.776,0-1.387,0.09-1.83,0.27
			c-0.444,0.18-0.666,0.442-0.666,0.786C594.887,745.274,595.108,745.532,595.553,745.721z"/>
		<path d="M607.504,739.041c0.128,0.304,0.3,0.58,0.516,0.828c0.232,0.272,0.512,0.51,0.84,0.714
			c0.328,0.204,0.676,0.362,1.044,0.474c-0.136,0.152-0.284,0.322-0.444,0.51c-0.16,0.188-0.284,0.334-0.372,0.438
			c-0.184-0.072-0.402-0.182-0.654-0.33c-0.252-0.148-0.506-0.322-0.762-0.522c-0.208-0.168-0.404-0.35-0.588-0.546
			c-0.184-0.196-0.336-0.394-0.456-0.594c-0.08,0.208-0.214,0.424-0.402,0.648c-0.188,0.224-0.399,0.436-0.63,0.636
			c-0.24,0.2-0.49,0.386-0.75,0.558c-0.26,0.172-0.51,0.314-0.75,0.426c-0.104-0.096-0.246-0.228-0.426-0.396
			c-0.18-0.168-0.366-0.328-0.558-0.48c0.416-0.16,0.812-0.366,1.188-0.618c0.376-0.252,0.7-0.55,0.972-0.895
			c0.208-0.256,0.37-0.54,0.486-0.852s0.174-0.652,0.174-1.02v-0.324h-1.98v-1.116h5.352v1.116h-1.992v0.36
			C607.312,738.409,607.376,738.737,607.504,739.041z M610.876,746.913v-2.724h-6v-1.14h7.308v3.864H610.876z M612.185,739.701v2.88
			h-1.296v-6.456h1.296v2.4h1.428v1.176H612.185z"/>
		<path d="M619.567,742.225v4.608h-1.32v-4.608h-4.272v-1.116h6.984c0.151-0.496,0.282-1.072,0.39-1.729
			c0.108-0.656,0.166-1.256,0.174-1.8h-6.468v-1.128h7.848c-0.008,0.704-0.07,1.508-0.186,2.412s-0.254,1.652-0.414,2.244h1.704
			v1.116H619.567z"/>
	</g>
	<g>
		<path d="M518.391,811.371v-1.104h7.176c0.088-0.328,0.176-0.76,0.264-1.296c0.088-0.536,0.148-1.02,0.18-1.452h-6.528v-1.128
			h7.884c-0.008,0.608-0.068,1.276-0.18,2.004c-0.112,0.728-0.224,1.352-0.336,1.872h1.548v1.104H518.391z M519.675,816.699v-4.152
			h7.428v4.152H519.675z M525.818,813.663h-4.848v1.92h4.848V813.663z"/>
		<path d="M534.333,810.656c0.572,0.532,1.162,0.882,1.771,1.05c-0.152,0.168-0.294,0.332-0.426,0.492
			c-0.132,0.16-0.254,0.32-0.366,0.48c-0.488-0.184-0.97-0.474-1.446-0.87c-0.476-0.396-0.854-0.814-1.134-1.254
			c-0.224,0.48-0.598,0.956-1.122,1.428c-0.524,0.472-1.034,0.804-1.53,0.996c-0.136-0.16-0.28-0.318-0.432-0.474
			c-0.152-0.156-0.32-0.31-0.504-0.462c0.712-0.24,1.356-0.638,1.932-1.194c0.576-0.556,0.888-1.222,0.936-1.998H529.9v-1.056h5.568
			v1.056h-2.064C533.452,809.523,533.762,810.124,534.333,810.656z M531.076,807.086v-1.008h3.264v1.008H531.076z M531.304,816.638
			v-3.288h1.296v2.16h6.228v1.128H531.304z M537.316,814.058v-3.612h-1.848v-1.116h1.848v-3.204h1.272v7.932H537.316z"/>
		<path d="M545.567,812.225v4.608h-1.32v-4.608h-4.272v-1.116h6.984c0.151-0.496,0.282-1.072,0.39-1.729
			c0.108-0.656,0.166-1.256,0.174-1.8h-6.468v-1.128h7.848c-0.008,0.704-0.07,1.508-0.186,2.412
			c-0.116,0.904-0.254,1.652-0.414,2.244h1.704v1.116H545.567z"/>
	</g>
</g>
</svg>
